<svg width="44" height="44" viewBox="0 0 44 44" fill="none" xmlns="http://www.w3.org/2000/svg">
<path fill-rule="evenodd" clip-rule="evenodd" d="M16.9835 3.66756C16.4762 4.09992 16.2225 4.31611 15.9516 4.4977C15.3305 4.91395 14.633 5.20285 13.8996 5.34766C13.5796 5.41084 13.2473 5.43735 12.5828 5.49038C10.9133 5.62361 10.0785 5.69022 9.38207 5.93622C7.77124 6.50518 6.5042 7.77222 5.93524 9.38305C5.68925 10.0795 5.62263 10.9143 5.4894 12.5838C5.43637 13.2483 5.40986 13.5806 5.34669 13.9005C5.20188 14.634 4.91298 15.3315 4.49672 15.9525C4.31513 16.2235 4.09895 16.4771 3.66658 16.9845C2.58025 18.2592 2.03707 18.8966 1.71855 19.563C0.981838 21.1044 0.981838 22.8963 1.71855 24.4376C2.03707 25.104 2.58024 25.7414 3.66658 27.0161C4.0989 27.5235 4.31514 27.7772 4.49672 28.0481C4.91298 28.6692 5.20188 29.3666 5.34669 30.1001C5.40986 30.4201 5.43637 30.7523 5.4894 31.4168C5.62263 33.0864 5.68925 33.9212 5.93524 34.6176C6.5042 36.2284 7.77124 37.4955 9.38207 38.0644C10.0785 38.3104 10.9133 38.377 12.5828 38.5103C13.2473 38.5633 13.5796 38.5898 13.8996 38.653C14.633 38.7978 15.3305 39.0867 15.9516 39.5029C16.2225 39.6845 16.4762 39.9007 16.9835 40.3331C18.2583 41.4194 18.8957 41.9626 19.5621 42.2811C21.1034 43.0178 22.8953 43.0178 24.4366 42.2811C25.103 41.9626 25.7404 41.4194 27.0152 40.3331C27.5225 39.9007 27.7762 39.6845 28.0471 39.5029C28.6682 39.0867 29.3657 38.7978 30.0991 38.653C30.4191 38.5898 30.7514 38.5633 31.4158 38.5103C33.0854 38.377 33.9202 38.3104 34.6166 38.0644C36.2275 37.4955 37.4945 36.2284 38.0634 34.6176C38.3094 33.9212 38.3761 33.0864 38.5093 31.4168C38.5623 30.7523 38.5888 30.4201 38.652 30.1001C38.7968 29.3666 39.0857 28.6692 39.502 28.0481C39.6836 27.7772 39.8997 27.5235 40.3321 27.0161C41.4185 25.7414 41.9616 25.104 42.2801 24.4376C43.0169 22.8963 43.0169 21.1044 42.2801 19.563C41.9616 18.8966 41.4185 18.2593 40.3321 16.9845C39.8997 16.4771 39.6836 16.2235 39.502 15.9525C39.0857 15.3315 38.7968 14.634 38.652 13.9005C38.5888 13.5806 38.5623 13.2483 38.5093 12.5838C38.3761 10.9143 38.3094 10.0795 38.0634 9.38305C37.4945 7.77222 36.2274 6.50518 34.6166 5.93622C33.9202 5.69022 33.0854 5.62361 31.4158 5.49038C30.7514 5.43735 30.4191 5.41084 30.0991 5.34766C29.3657 5.20285 28.6682 4.91395 28.0471 4.4977C27.7762 4.31611 27.5225 4.09993 27.0152 3.66756C25.7404 2.58122 25.103 2.03805 24.4366 1.71952C22.8953 0.982815 21.1034 0.982815 19.5621 1.71952C18.8957 2.03804 18.2583 2.58123 16.9835 3.66756ZM31.1108 17.5485C31.7729 16.8864 31.7729 15.8128 31.1108 15.1507C30.4486 14.4885 29.3751 14.4885 28.7129 15.1507L18.6082 25.2553L15.2857 21.9328C14.6236 21.2707 13.55 21.2707 12.8879 21.9328C12.2257 22.595 12.2257 23.6685 12.8879 24.3307L17.4093 28.8521C18.0715 29.5143 19.145 29.5143 19.8072 28.8521L31.1108 17.5485Z" fill="#4CAF50" stroke="#4CAF50" stroke-width="1.5"/>
</svg>
