<svg width="60" height="60" viewBox="0 0 60 60" fill="none" xmlns="http://www.w3.org/2000/svg">
<rect width="60" height="60" rx="30" fill="#E9FFEA"/>
<path fill-rule="evenodd" clip-rule="evenodd" d="M24.9843 11.6676C24.4769 12.0999 24.2232 12.3161 23.9523 12.4977C23.3312 12.914 22.6338 13.2029 21.9003 13.3477C21.5803 13.4108 21.2481 13.4374 20.5836 13.4904C18.914 13.6236 18.0793 13.6902 17.3828 13.9362C15.772 14.5052 14.5049 15.7722 13.936 17.383C13.69 18.0795 13.6234 18.9143 13.4901 20.5838C13.4371 21.2483 13.4106 21.5806 13.3474 21.9005C13.2026 22.634 12.9137 23.3315 12.4975 23.9525C12.3159 24.2235 12.0997 24.4771 11.6673 24.9845C10.581 26.2592 10.0378 26.8966 9.71928 27.563C8.98257 29.1044 8.98257 30.8963 9.71928 32.4376C10.0378 33.104 10.581 33.7414 11.6673 35.0161C12.0996 35.5235 12.3159 35.7772 12.4975 36.0481C12.9137 36.6692 13.2026 37.3666 13.3474 38.1001C13.4106 38.4201 13.4371 38.7523 13.4901 39.4168C13.6234 41.0864 13.69 41.9212 13.936 42.6176C14.5049 44.2284 15.772 45.4955 17.3828 46.0644C18.0793 46.3104 18.914 46.377 20.5836 46.5103C21.2481 46.5633 21.5803 46.5898 21.9003 46.653C22.6338 46.7978 23.3312 47.0867 23.9523 47.5029C24.2232 47.6845 24.4769 47.9007 24.9843 48.3331C26.259 49.4194 26.8964 49.9626 27.5628 50.2811C29.1041 51.0178 30.896 51.0178 32.4374 50.2811C33.1038 49.9626 33.7411 49.4194 35.0159 48.3331C35.5233 47.9007 35.7769 47.6845 36.0479 47.5029C36.6689 47.0867 37.3664 46.7978 38.0999 46.653C38.4198 46.5898 38.7521 46.5633 39.4166 46.5103C41.0861 46.377 41.9209 46.3104 42.6174 46.0644C44.2282 45.4955 45.4952 44.2284 46.0642 42.6176C46.3102 41.9212 46.3768 41.0864 46.51 39.4168C46.5631 38.7523 46.5896 38.4201 46.6527 38.1001C46.7975 37.3666 47.0864 36.6692 47.5027 36.0481C47.6843 35.7772 47.9005 35.5235 48.3328 35.0161C49.4192 33.7414 49.9624 33.104 50.2809 32.4376C51.0176 30.8963 51.0176 29.1044 50.2809 27.563C49.9624 26.8966 49.4192 26.2593 48.3328 24.9845C47.9005 24.4771 47.6843 24.2235 47.5027 23.9525C47.0864 23.3315 46.7975 22.634 46.6527 21.9005C46.5896 21.5806 46.5631 21.2483 46.51 20.5838C46.3768 18.9143 46.3102 18.0795 46.0642 17.383C45.4952 15.7722 44.2282 14.5052 42.6174 13.9362C41.9209 13.6902 41.0861 13.6236 39.4166 13.4904C38.7521 13.4374 38.4198 13.4108 38.0999 13.3477C37.3664 13.2029 36.6689 12.914 36.0479 12.4977C35.7769 12.3161 35.5233 12.0999 35.0159 11.6676C33.7411 10.5812 33.1038 10.038 32.4374 9.71952C30.896 8.98281 29.1041 8.98281 27.5628 9.71952C26.8964 10.038 26.259 10.5812 24.9843 11.6676ZM39.1115 25.5485C39.7737 24.8864 39.7737 23.8128 39.1115 23.1507C38.4494 22.4885 37.3758 22.4885 36.7136 23.1507L26.609 33.2553L23.2865 29.9328C22.6243 29.2707 21.5507 29.2707 20.8886 29.9328C20.2264 30.595 20.2264 31.6685 20.8886 32.3307L25.41 36.8521C26.0722 37.5143 27.1457 37.5143 27.8079 36.8521L39.1115 25.5485Z" fill="#4CAF50" stroke="#4CAF50" stroke-width="1.5"/>
</svg>
