<svg width="80" height="28" viewBox="0 0 80 28" fill="none" xmlns="http://www.w3.org/2000/svg">
<path d="M12 18V14M12 10H12.01M22 14C22 19.5228 17.5228 24 12 24C6.47715 24 2 19.5228 2 14C2 8.47715 6.47715 4 12 4C17.5228 4 22 8.47715 22 14Z" stroke="#2D2D2D" stroke-width="2" stroke-linecap="round" stroke-linejoin="round"/>
<path d="M37.598 21V6.45455H39.7926V12.7756H47.044V6.45455H49.2457V21H47.044V14.6577H39.7926V21H37.598ZM56.973 21.2202C55.8982 21.2202 54.9725 20.9905 54.196 20.5312C53.4242 20.0672 52.8277 19.4162 52.4062 18.5781C51.9896 17.7353 51.7812 16.7481 51.7812 15.6165C51.7812 14.4991 51.9896 13.5142 52.4062 12.6619C52.8277 11.8097 53.4148 11.1444 54.1676 10.6662C54.9252 10.188 55.8106 9.94886 56.8239 9.94886C57.4394 9.94886 58.036 10.0507 58.6136 10.2543C59.1913 10.4579 59.7098 10.7775 60.169 11.2131C60.6283 11.6487 60.9905 12.2145 61.2557 12.9105C61.5208 13.6018 61.6534 14.4422 61.6534 15.4318V16.1847H52.9815V14.5938H59.5724C59.5724 14.035 59.4588 13.5402 59.2315 13.1094C59.0043 12.6738 58.6847 12.3305 58.2727 12.0795C57.8655 11.8286 57.3873 11.7031 56.8381 11.7031C56.2415 11.7031 55.7206 11.8499 55.2756 12.1435C54.8352 12.4323 54.4943 12.8111 54.2528 13.2798C54.0161 13.7438 53.8977 14.2481 53.8977 14.7926V16.0355C53.8977 16.7647 54.0256 17.3849 54.2812 17.8963C54.5417 18.4077 54.9039 18.7983 55.3679 19.0682C55.8319 19.3333 56.3741 19.4659 56.9943 19.4659C57.3968 19.4659 57.7637 19.4091 58.0952 19.2955C58.4266 19.1771 58.7131 19.0019 58.9545 18.7699C59.196 18.5379 59.3807 18.2514 59.5085 17.9105L61.5185 18.2727C61.3575 18.8646 61.0687 19.383 60.652 19.8281C60.2401 20.2685 59.7216 20.6117 59.0966 20.858C58.4763 21.0994 57.7685 21.2202 56.973 21.2202ZM66.1332 6.45455V21H64.0096V6.45455H66.1332ZM68.9901 25.0909V10.0909H71.0639V11.8594H71.2415C71.3646 11.6321 71.5421 11.3693 71.7741 11.071C72.0062 10.7727 72.3281 10.5123 72.7401 10.2898C73.152 10.0625 73.6965 9.94886 74.3736 9.94886C75.2543 9.94886 76.0402 10.1714 76.7315 10.6165C77.4228 11.0616 77.965 11.7031 78.358 12.5412C78.7557 13.3793 78.9545 14.3878 78.9545 15.5668C78.9545 16.7457 78.758 17.7566 78.3651 18.5994C77.9721 19.4375 77.4323 20.0838 76.7457 20.5384C76.0592 20.9882 75.2756 21.2131 74.3949 21.2131C73.732 21.2131 73.1899 21.1018 72.7685 20.8793C72.3518 20.6567 72.0251 20.3963 71.7884 20.098C71.5516 19.7997 71.3693 19.5346 71.2415 19.3026H71.1136V25.0909H68.9901ZM71.071 15.5455C71.071 16.3125 71.1823 16.9848 71.4048 17.5625C71.6274 18.1402 71.9493 18.5923 72.3707 18.919C72.7921 19.241 73.3082 19.402 73.919 19.402C74.5535 19.402 75.0838 19.2339 75.5099 18.8977C75.9361 18.5568 76.258 18.0952 76.4759 17.5128C76.6984 16.9304 76.8097 16.2746 76.8097 15.5455C76.8097 14.8258 76.7008 14.1795 76.483 13.6065C76.2699 13.0336 75.9479 12.5814 75.517 12.25C75.0909 11.9186 74.5582 11.7528 73.919 11.7528C73.3035 11.7528 72.7827 11.9115 72.3565 12.2287C71.9351 12.5459 71.6155 12.9886 71.3977 13.5568C71.1799 14.125 71.071 14.7879 71.071 15.5455Z" fill="#2D2D2D"/>
</svg>
