<svg width="181" height="32" viewBox="0 0 181 32" fill="none" xmlns="http://www.w3.org/2000/svg">
<rect width="32" height="32" rx="8" fill="#1E2382"/>
<path d="M9.32102 25V7.54545H13.5398V14.9261H13.7699L19.5398 7.54545H24.5085L18.321 15.3352L24.6193 25H19.5739L15.2273 18.1392L13.5398 20.2699V25H9.32102Z" fill="white"/>
<path d="M41.7216 25V7.54545H44.8835V15.5653H45.0966L51.9062 7.54545H55.767L49.017 15.3778L55.8267 25H52.0256L46.8182 17.517L44.8835 19.8011V25H41.7216ZM58.7841 29.9091C58.3636 29.9091 57.9744 29.875 57.6165 29.8068C57.2642 29.7443 56.983 29.6705 56.7727 29.5852L57.4886 27.1818C57.9375 27.3125 58.3381 27.375 58.6903 27.3693C59.0426 27.3636 59.3523 27.2528 59.6193 27.0369C59.892 26.8267 60.1222 26.4744 60.3097 25.9801L60.5739 25.2727L55.8267 11.9091H59.0994L62.1165 21.7955H62.2528L65.2784 11.9091H68.5597L63.3182 26.5852C63.0739 27.2784 62.75 27.8722 62.3466 28.3665C61.9432 28.8665 61.4489 29.2472 60.8636 29.5085C60.2841 29.7756 59.5909 29.9091 58.7841 29.9091ZM73.7798 17.3295V25H70.6946V11.9091H73.6435V14.1335H73.7969C74.098 13.4006 74.5781 12.8182 75.2372 12.3864C75.902 11.9545 76.723 11.7386 77.7003 11.7386C78.6037 11.7386 79.3906 11.9318 80.0611 12.3182C80.7372 12.7045 81.2599 13.2642 81.6293 13.9972C82.0043 14.7301 82.1889 15.6193 82.1832 16.6648V25H79.098V17.142C79.098 16.267 78.8707 15.5824 78.4162 15.0881C77.9673 14.5937 77.3452 14.3466 76.5497 14.3466C76.0099 14.3466 75.5298 14.4659 75.1094 14.7045C74.6946 14.9375 74.3679 15.2756 74.1293 15.7188C73.8963 16.1619 73.7798 16.6989 73.7798 17.3295ZM90.1776 25.2301C89.1491 25.2301 88.2287 24.9659 87.4162 24.4375C86.6037 23.9091 85.9616 23.142 85.4901 22.1364C85.0185 21.1307 84.7827 19.9091 84.7827 18.4716C84.7827 17.017 85.0213 15.7898 85.4986 14.7898C85.9815 13.7841 86.6321 13.0256 87.4503 12.5142C88.2685 11.9972 89.1804 11.7386 90.1861 11.7386C90.9531 11.7386 91.5838 11.8693 92.0781 12.1307C92.5724 12.3864 92.9645 12.696 93.2543 13.0597C93.544 13.4176 93.7685 13.7557 93.9276 14.0739H94.0554V7.54545H97.1491V25H94.1151V22.9375H93.9276C93.7685 23.2557 93.5384 23.5937 93.2372 23.9517C92.9361 24.304 92.5384 24.6051 92.044 24.8551C91.5497 25.1051 90.9276 25.2301 90.1776 25.2301ZM91.0384 22.6989C91.6918 22.6989 92.2486 22.5227 92.7088 22.1705C93.169 21.8125 93.5185 21.3153 93.7571 20.679C93.9957 20.0426 94.1151 19.3011 94.1151 18.4545C94.1151 17.608 93.9957 16.8722 93.7571 16.2472C93.5241 15.6222 93.1776 15.1364 92.7173 14.7898C92.2628 14.4432 91.7031 14.2699 91.0384 14.2699C90.3509 14.2699 89.777 14.4489 89.3168 14.8068C88.8565 15.1648 88.5099 15.6591 88.277 16.2898C88.044 16.9205 87.9276 17.642 87.9276 18.4545C87.9276 19.2727 88.044 20.0028 88.277 20.6449C88.5156 21.2812 88.8651 21.7841 89.3253 22.1534C89.7912 22.517 90.3622 22.6989 91.0384 22.6989ZM104.204 25.2642C103.374 25.2642 102.627 25.1165 101.962 24.821C101.303 24.5199 100.781 24.0767 100.394 23.4915C100.013 22.9062 99.8232 22.1847 99.8232 21.3267C99.8232 20.5881 99.9595 19.9773 100.232 19.4943C100.505 19.0114 100.877 18.625 101.349 18.3352C101.82 18.0455 102.352 17.8267 102.942 17.679C103.539 17.5256 104.156 17.4148 104.792 17.3466C105.559 17.267 106.181 17.196 106.658 17.1335C107.136 17.0653 107.482 16.9631 107.698 16.8267C107.92 16.6847 108.031 16.4659 108.031 16.1705V16.1193C108.031 15.4773 107.84 14.9801 107.46 14.6278C107.079 14.2756 106.531 14.0994 105.815 14.0994C105.059 14.0994 104.46 14.2642 104.016 14.5938C103.579 14.9233 103.283 15.3125 103.13 15.7614L100.249 15.3523C100.477 14.5568 100.852 13.892 101.374 13.358C101.897 12.8182 102.536 12.4148 103.292 12.1477C104.048 11.875 104.883 11.7386 105.798 11.7386C106.428 11.7386 107.056 11.8125 107.681 11.9602C108.306 12.108 108.877 12.3523 109.394 12.6932C109.911 13.0284 110.326 13.4858 110.638 14.0653C110.957 14.6449 111.116 15.3693 111.116 16.2386V25H108.15V23.2017H108.048C107.86 23.5653 107.596 23.9062 107.255 24.2244C106.92 24.5369 106.496 24.7898 105.985 24.983C105.479 25.1705 104.886 25.2642 104.204 25.2642ZM105.005 22.9972C105.624 22.9972 106.161 22.875 106.616 22.6307C107.07 22.3807 107.42 22.0511 107.664 21.642C107.914 21.233 108.039 20.7869 108.039 20.304V18.7614C107.942 18.8409 107.778 18.9148 107.545 18.983C107.317 19.0511 107.062 19.1108 106.778 19.1619C106.494 19.2131 106.212 19.2585 105.934 19.2983C105.656 19.3381 105.414 19.3722 105.21 19.4006C104.749 19.4631 104.337 19.5653 103.974 19.7074C103.61 19.8494 103.323 20.0483 103.113 20.304C102.903 20.554 102.798 20.8778 102.798 21.2756C102.798 21.8438 103.005 22.2727 103.42 22.5625C103.835 22.8523 104.363 22.9972 105.005 22.9972Z" fill="#1E2382"/>
</svg>
