<svg width="176" height="214" viewBox="0 0 176 214" fill="none" xmlns="http://www.w3.org/2000/svg">
<path d="M139.799 117.723C139.799 117.723 126.775 125.329 122.866 144.833C122.866 144.833 139.187 135.154 139.799 117.723Z" fill="black"/>
<path d="M118.042 88.6543C118.042 88.6543 115.101 87.3602 116.954 79.7652C118.807 72.1702 122.743 67.615 124.517 69.2288C126.29 70.8425 149.667 81.6092 149.667 81.6092L171.893 83.4398C175.387 89.8435 173.925 93.5225 173.925 93.5225L118.044 88.6521L118.042 88.6543Z" fill="white" stroke="#231F20" stroke-miterlimit="10"/>
<path d="M142.15 91.6474C146.037 92.7114 166.951 104.359 166.951 104.359C166.951 104.359 174.714 101.598 175.219 93.9787L123.075 75.7266C123.075 75.7266 122.172 85.5991 118.04 88.6523C118.04 88.6523 138.261 90.5835 142.15 91.6452V91.6474Z" fill="white" stroke="#231F20" stroke-miterlimit="10"/>
<path d="M124.76 69.417C124.76 69.417 125.306 71.4219 124.595 76.2587" stroke="#231F20" stroke-miterlimit="10"/>
<path d="M142.094 91.9071C142.094 91.9071 145.811 86.7171 145.945 79.8843L151.243 81.7395C151.243 81.7395 151.37 88.532 146.882 94.1869L142.094 91.9071Z" fill="#FF6839" stroke="black" stroke-miterlimit="10"/>
<path d="M120.501 85.293C120.501 85.293 117.767 85.7624 117.856 81.9001C117.979 76.6341 120.717 72.9707 120.717 72.9707C120.717 72.9707 121.386 74.7476 124.7 75.4808" stroke="#231F20" stroke-miterlimit="10"/>
<path d="M137.251 119.001L139.805 120.909C139.805 120.909 140.852 104.629 140.563 103.762C140.273 102.894 134.305 95.2859 134.305 95.2859C134.305 95.2859 129.484 89.5215 129.888 88.7928C130.293 88.0642 132.054 83.2295 134.837 82.1254C134.837 82.1254 137.324 80.3887 137.51 82.1254C137.693 83.8621 137.034 88.2653 137.188 88.6542C137.342 89.0431 137.76 89.6868 139.345 89.7181C140.93 89.7494 147.32 89.2108 148.502 92.6775C149.685 96.1442 149.698 95.306 149.698 95.306L154.472 98.234C154.472 98.234 158.657 108.692 160.246 114.311C161.837 119.931 164.94 131.909 164.841 140.518C164.743 149.128 161.609 155.091 156.321 156.754C150.304 158.645 141.725 154.886 136.041 151.31C130.358 147.733 123.355 142.409 123.355 142.409C123.355 142.409 124.448 129.962 137.251 119.001Z" fill="white"/>
<path d="M154.229 97.4565C154.229 97.4565 178.881 155.53 153.429 157.307C137.055 158.449 108.767 128.438 108.438 130.002C108.438 130.002 95.5167 112.707 104.477 102.698C113.438 92.689 139.808 120.912 139.808 120.912" stroke="black" stroke-miterlimit="10"/>
<path d="M87.8878 96.0056C87.8878 96.0056 104.479 93.3168 122.602 104.559C140.715 115.798 139.799 117.722 139.799 117.722C139.799 117.722 125.572 125.053 122.865 144.832L101.008 132.454C101.008 132.454 81.502 112.445 87.8878 96.0056Z" fill="#F1F5F9"/>
<path d="M139.799 117.723C139.799 117.723 126.359 125.034 122.866 144.833" stroke="black" stroke-miterlimit="10"/>
<path d="M141.828 72.2843L139.544 82.6114C139.432 83.1165 139.751 83.6164 140.256 83.7281L143.008 84.3367C143.513 84.4484 144.013 84.1295 144.125 83.6245L146.409 73.2973C146.52 72.7923 146.202 72.2924 145.697 72.1807L142.945 71.5721C142.439 71.4604 141.94 71.7793 141.828 72.2843Z" fill="white" stroke="black" stroke-miterlimit="10"/>
<path d="M146.196 75.6311L144.178 84.7579C144.066 85.263 144.385 85.7629 144.89 85.8746L147.642 86.4832C148.147 86.5949 148.647 86.276 148.758 85.771L150.777 76.6441C150.889 76.1391 150.57 75.6392 150.065 75.5275L147.313 74.9189C146.808 74.8072 146.308 75.1261 146.196 75.6311Z" fill="white" stroke="black" stroke-miterlimit="10"/>
<path d="M150.775 76.6438L148.757 85.7706C148.645 86.2757 148.964 86.7756 149.469 86.8873L152.221 87.4959C152.726 87.6076 153.226 87.2887 153.337 86.7837L155.356 77.6568C155.467 77.1518 155.149 76.6519 154.644 76.5402L151.892 75.9316C151.387 75.8199 150.887 76.1388 150.775 76.6438Z" fill="white" stroke="black" stroke-miterlimit="10"/>
<path d="M155.648 76.3264L153.63 85.4532C153.518 85.9583 153.837 86.4582 154.342 86.5699L157.094 87.1785C157.599 87.2902 158.099 86.9713 158.211 86.4663L160.229 77.3395C160.341 76.8344 160.022 76.3345 159.517 76.2228L156.765 75.6142C156.26 75.5025 155.76 75.8214 155.648 76.3264Z" fill="white" stroke="black" stroke-miterlimit="10"/>
<path d="M148.29 100.771C149.958 98.0644 150.65 94.5061 147.481 91.2182C144.312 87.9326 136.764 91.1266 137.182 87.975C137.597 84.8212 138.431 80.9366 136.348 81.2137C134.265 81.4909 129.126 86.9938 130.378 89.6312C131.296 91.5691 136.585 97.9236 139.329 101.165C140.38 102.405 140.887 104.008 140.738 105.628C139.891 114.855 137.477 146.296 143.706 147.955" stroke="black" stroke-miterlimit="10"/>
<path d="M105.403 62.7071C102.41 60.0674 100.714 52.0991 100.714 52.0991C97.7635 56.585 93.6821 54.6628 93.6821 54.6628C93.6821 54.6628 75.3629 69.788 74.4063 72.2757C73.928 73.5184 71.7308 77.3897 70.5015 81.8644C69.2744 77.3897 67.0751 73.5184 66.5967 72.2757C65.6401 69.788 46.9879 54.6137 46.9879 54.6137C46.9879 54.6137 44.0755 56.8018 40.535 52.4232C40.535 52.4232 38.5905 60.0696 35.5976 62.7093C32.6048 65.349 23.1144 76.6789 32.8015 82.6087C32.8015 82.6087 30.2914 91.5649 34.5449 95.0875C38.434 98.3083 47.2717 98.8716 50.7161 92.3673C50.7161 92.3673 61.7398 102.401 68.5704 95.0875C69.4354 94.1599 70.0634 93.1407 70.5015 92.0633C70.9396 93.1407 71.5677 94.1599 72.4327 95.0875C79.2633 102.401 90.287 92.3673 90.287 92.3673C93.7313 98.8738 102.343 98.0155 106.458 95.0875C110.468 92.2354 108.202 82.6087 108.202 82.6087C117.886 76.6767 108.396 65.3468 105.405 62.7093L105.403 62.7071Z" fill="black"/>
<path d="M95.7402 41.5467C91.8399 42.4251 91.1157 47.0876 91.109 47.1234C90.8206 46.5288 90.5144 45.9477 90.1836 45.3844C90.1836 45.3844 82.5305 32.6285 77.1729 32.7559C71.8153 32.8833 57.9105 29.1841 51.7862 42.5793L48.3173 51.2472C48.3173 51.2472 48.1832 51.6048 47.9798 52.2396L49.7902 46.0013C49.7902 46.0013 47.9529 41.0393 44.5287 41.379C44.5287 41.379 38.4603 42.4922 38.2994 47.1301C38.1385 51.7658 42.2377 56.607 47.2198 54.8569C45.4116 61.7948 43.6861 74.9307 54.5242 82.1122C54.5242 82.1122 60.4854 85.0045 62.7093 85.3956L61.3615 94.7877C61.3615 94.7877 67.2422 102.57 74.2493 100.384C74.2493 100.384 79.484 99.1417 82.0902 93.7595L80.729 84.7586C80.729 84.7586 95.7715 80.2124 95.2105 65.2861C95.2105 65.2861 95.083 60.409 93.7487 54.7899C100.088 56.3813 102.814 50.3285 102.767 47.6576C102.723 44.9866 99.6561 40.6638 95.7402 41.5467Z" fill="white"/>
<path d="M62.7095 85.3955L61.364 96.0057" stroke="black" stroke-miterlimit="10"/>
<path d="M80.7316 84.7588L82.5018 95.4338" stroke="black" stroke-miterlimit="10"/>
<path d="M82.0929 93.7598L87.3701 94.7321C105.209 98.0177 118.157 113.568 118.157 131.706V172.604H27.4326V132.206C27.4326 112.861 38.3021 95.3087 61.3642 94.7902C61.3642 94.7902 72.8439 108.61 82.0929 93.762V93.7598Z" fill="#F1F5F9"/>
<path d="M60.0385 157.649L72.5351 110.427L113.425 113.297C113.425 113.297 95.823 148.594 95.8208 153.364V158.131L60.0385 157.649Z" fill="#FF6839"/>
<path d="M60.1413 119.497H90.6755L83.6594 160.652H57.7006C57.7006 160.652 60.4811 121.995 60.1413 119.497Z" fill="#FFC600"/>
<path d="M18.8116 145.688L15.8702 144.057C15.8702 144.057 18.5568 141.891 28.188 141.701C28.188 141.701 38.5211 141.366 44.5291 144.061L40.4589 145.691C40.4589 145.691 25.1236 147.32 18.8094 145.691L18.8116 145.688Z" fill="black"/>
<path d="M82.9911 29.0347H58.0112C58.0112 29.0347 39.7747 60.416 47.8569 74.9578C53.3174 84.7835 64.084 86.2207 70.5011 86.1223C76.916 86.2207 87.6848 84.7835 93.1453 74.9578C101.228 60.416 82.9911 29.0347 82.9911 29.0347Z" stroke="black" stroke-miterlimit="10"/>
<path d="M91.109 46.5712C91.109 46.5712 92.9999 38.5358 99.569 42.4272C107.745 47.2685 98.2033 57.9994 93.6638 54.7317" stroke="black" stroke-miterlimit="10"/>
<path d="M99.5693 46.0638C99.5693 46.0638 95.4231 43.3213 93.5098 48.8711" stroke="black" stroke-miterlimit="10"/>
<path d="M49.958 46.5712C49.958 46.5712 48.0671 38.5358 41.4981 42.4272C33.3219 47.2685 42.8637 57.9994 47.4033 54.7317" stroke="black" stroke-miterlimit="10"/>
<path d="M41.4982 46.0638C41.4982 46.0638 45.6444 43.3213 47.5576 48.8711" stroke="black" stroke-miterlimit="10"/>
<path d="M40.6932 142.95L39.5465 155.854L76.8219 156.187C76.8219 156.187 82.0521 149.685 85.6887 149.159C85.6887 149.159 94.6829 145.65 95.9569 149.872C96.775 152.577 95.6485 152.87 93.724 153.113C91.7996 153.357 87.0589 153.846 86.9359 155.478C86.8443 156.696 86.7124 157.519 87.8881 157.834C89.0615 158.149 91.6565 158.015 93.1339 157.76C94.6136 157.505 102.014 155.968 102.014 155.968C102.014 155.968 107.007 155.496 106.923 157.259C106.838 159.023 105.64 160.317 105.64 160.317C105.64 160.317 110.329 160.243 110.237 162.823C110.237 162.823 110.358 165.5 105.702 165.706C105.702 165.706 105.997 166.086 106.091 166.991C106.185 167.896 105.751 169.508 104.395 169.374C103.038 169.238 101.122 169.685 101.122 169.685C101.122 169.685 103.391 170.722 103.447 171.334C103.505 171.947 103.004 172.731 102.124 172.865C101.243 172.997 85.6552 172.865 85.6552 172.865H22.4231C22.4231 172.865 17.9976 172.698 17.289 163.406L19.1286 143.475C19.1286 143.475 24.6248 139.821 40.6932 142.95Z" fill="white"/>
<path d="M105.108 160.389C105.108 160.389 109.322 160.38 109.941 161.345C110.839 162.745 109.827 164.854 108.235 165.237C106.644 165.619 89.8692 165.938 89.8692 165.938" stroke="black" stroke-miterlimit="10"/>
<path d="M105.553 165.463C105.553 165.463 107.026 167.53 105.622 168.934C104.219 170.338 89.5069 169.332 89.5069 169.332" stroke="black" stroke-miterlimit="10"/>
<path d="M101.123 169.689C101.123 169.689 104.601 170.648 103.26 172.188C101.921 173.728 80.6757 172.604 80.6757 172.604C80.6757 172.604 30.0767 173.227 22.4549 172.604C15.8143 172.061 17.4728 157.986 17.4728 157.986C17.4728 157.986 18.2372 145.143 22.4549 124.414C22.4549 124.414 33.9278 113.252 42.3476 124.414L39.5805 155.59L76.8559 155.923C76.8559 155.923 82.3722 149.26 88.2104 148.142C90.3293 147.736 94.8443 147.378 95.9909 149.609C96.6123 150.816 96.5005 153.755 91.5474 153.625C88.311 153.54 87.3811 154.633 86.9721 155.217C86.2971 156.18 86.9028 157.749 87.8908 157.838C94.7616 158.462 107.086 152.841 107.091 157.774C107.095 163.487 87.8908 161.92 87.8908 161.92" stroke="black" stroke-miterlimit="10"/>
<path d="M49.9559 97.7559L44.529 143.8C28.7243 138.827 15.7516 143.8 15.7516 143.8L17.2916 133.178C21.3998 100.416 49.9581 97.7559 49.9581 97.7559H49.9559Z" fill="#F1F5F9"/>
<path d="M44.529 143.802C44.529 143.802 30.1034 138.777 15.7516 143.802" stroke="black" stroke-miterlimit="10"/>
<path d="M44.5291 155.413C44.5291 155.413 42.0325 137.054 38.2998 130.527C34.5671 124.001 27.4303 113.797 27.4303 113.797L75.7696 109.204C75.7696 109.204 79.0821 131.323 78.9592 142.465C78.8362 153.605 76.8537 155.704 76.8537 155.704L44.5269 155.413H44.5291Z" fill="#00A9C1"/>
<path d="M42.1532 121.996C42.2829 122.722 42.5265 123.424 42.8864 124.07C43.1501 124.544 43.5077 125.065 44.0754 125.181C45.1215 125.395 45.6758 124.162 45.8367 123.337C45.9977 122.512 46.0714 120.724 47.3209 120.827C47.8864 120.874 48.2462 121.417 48.4742 121.877C48.7201 122.374 48.8274 122.919 49.0643 123.417C49.4711 124.278 50.4232 125.226 51.3776 124.448C51.8783 124.039 52.1264 123.359 52.4036 122.8C52.5734 122.461 52.7411 122.119 52.9109 121.779C53.0071 121.585 53.1054 121.39 53.2015 121.196C53.2887 121.019 53.3893 120.637 53.6642 120.69C53.8072 120.72 53.9928 120.889 54.109 120.972C54.29 121.102 54.4688 121.234 54.6432 121.372C54.9315 121.6 55.2109 121.842 55.4791 122.092C55.7473 122.342 55.9865 122.604 56.2391 122.859C56.4447 123.066 56.6861 123.256 56.9923 123.27C57.5399 123.297 57.9624 122.803 58.1725 122.351C58.2932 122.092 58.3602 121.813 58.4541 121.542C58.5033 121.401 58.5547 121.26 58.624 121.126C58.6843 121.012 58.8005 120.771 58.9346 120.724C59.1492 120.65 59.4532 121.001 59.5605 121.14C59.7147 121.339 59.8354 121.562 59.9695 121.775C60.2422 122.204 60.5797 122.635 61.1184 122.709C61.7062 122.792 62.2963 122.456 62.6405 121.996C63.0987 121.381 63.168 120.572 63.2306 119.834L63.0205 119.955C64.0084 120.695 64.9963 121.435 65.982 122.175C66.0446 122.222 66.134 122.181 66.1742 122.125C66.7196 121.321 67.265 120.514 67.8104 119.709L67.5913 119.738C68.4787 120.509 69.936 120.409 70.687 119.492C70.801 119.354 70.6043 119.155 70.4903 119.296C69.8399 120.087 68.5703 120.219 67.7903 119.542C67.7187 119.479 67.6226 119.492 67.5712 119.571C67.0258 120.375 66.4805 121.182 65.9351 121.987L66.1273 121.938C65.1394 121.198 64.1515 120.458 63.1658 119.718C63.0719 119.649 62.9624 119.745 62.9557 119.839C62.8975 120.53 62.8394 121.312 62.3902 121.875C62.0214 122.338 61.3128 122.651 60.7719 122.284C60.0947 121.826 59.9718 120.695 59.1112 120.469C58.8899 120.411 58.7849 120.465 58.6284 120.637C58.4496 120.831 58.3356 121.07 58.2418 121.314C58.0249 121.882 57.9221 122.64 57.303 122.928C56.923 123.104 56.6302 122.861 56.3776 122.597C56.1251 122.333 55.8747 122.072 55.6065 121.826C55.1103 121.37 54.5761 120.923 54.0084 120.559C53.8274 120.442 53.6083 120.333 53.3937 120.433C53.1345 120.554 53.0339 120.916 52.9177 121.151C52.5801 121.833 52.2404 122.514 51.9029 123.194C51.6436 123.715 51.3084 124.437 50.6333 124.457C50.0634 124.472 49.6611 123.934 49.4152 123.484C48.9369 122.604 48.8721 121.459 48.016 120.813C47.6763 120.556 47.2382 120.469 46.8314 120.614C46.4246 120.76 46.1407 121.133 45.9686 121.526C45.5305 122.528 45.7674 123.911 44.8779 124.691C44.2766 125.219 43.6239 124.723 43.2775 124.166C42.8484 123.482 42.5734 122.711 42.4304 121.918C42.3991 121.741 42.1286 121.815 42.1599 121.991L42.1532 121.996Z" fill="white"/>
<path d="M43.7736 128.753C43.9033 129.48 44.1469 130.181 44.5067 130.827C44.7705 131.301 45.1281 131.822 45.6958 131.938C46.7419 132.153 47.2962 130.919 47.4571 130.094C47.6181 129.269 47.6918 127.481 48.9413 127.584C49.5068 127.631 49.8666 128.174 50.0946 128.635C50.3405 129.131 50.4477 129.676 50.6847 130.175C51.0915 131.035 52.0436 131.983 52.998 131.205C53.4987 130.796 53.7468 130.117 54.024 129.558C54.1938 129.218 54.3615 128.876 54.5313 128.536C54.6274 128.342 54.7258 128.147 54.8219 127.953C54.9091 127.776 55.0097 127.394 55.2846 127.448C55.4276 127.477 55.6131 127.647 55.7294 127.729C55.9104 127.859 56.0892 127.991 56.2636 128.13C56.5519 128.358 56.8313 128.599 57.0995 128.849C57.3677 129.1 57.6069 129.361 57.8595 129.616C58.0651 129.824 58.3065 130.014 58.6127 130.027C59.1603 130.054 59.5828 129.56 59.7929 129.109C59.9136 128.849 59.9806 128.57 60.0745 128.299C60.1237 128.159 60.1751 128.018 60.2443 127.884C60.3047 127.77 60.4209 127.528 60.555 127.481C60.7696 127.408 61.0736 127.758 61.1809 127.897C61.3351 128.096 61.4558 128.32 61.5899 128.532C61.8626 128.961 62.2001 129.392 62.7388 129.466C63.3266 129.549 63.9167 129.214 64.2609 128.753C64.7191 128.138 64.7884 127.329 64.851 126.592L64.6409 126.712C65.6288 127.452 66.6167 128.192 67.6024 128.932C67.665 128.979 67.7544 128.939 67.7946 128.883C68.34 128.078 68.8854 127.271 69.4308 126.467L69.2117 126.496C70.0991 127.267 71.5564 127.166 72.3074 126.25C72.4214 126.111 72.2247 125.912 72.1107 126.053C71.4603 126.844 70.1907 126.976 69.4106 126.299C69.3391 126.236 69.243 126.25 69.1916 126.328C68.6462 127.133 68.1009 127.94 67.5555 128.744L67.7477 128.695C66.7598 127.955 65.7718 127.215 64.7861 126.476C64.6923 126.406 64.5828 126.502 64.576 126.596C64.5179 127.287 64.4598 128.069 64.0106 128.632C63.6418 129.095 62.9332 129.408 62.3923 129.041C61.7151 128.583 61.5921 127.452 60.7316 127.227C60.5103 127.168 60.4053 127.222 60.2488 127.394C60.07 127.589 59.956 127.828 59.8621 128.071C59.6453 128.639 59.5425 129.397 58.9234 129.685C58.5434 129.862 58.2506 129.618 57.998 129.354C57.7455 129.091 57.4951 128.829 57.2269 128.583C56.7307 128.127 56.1965 127.68 55.6288 127.316C55.4477 127.2 55.2287 127.09 55.0141 127.191C54.7549 127.311 54.6543 127.674 54.538 127.908C54.2005 128.59 53.8608 129.272 53.5233 129.951C53.264 130.472 52.9287 131.194 52.2537 131.214C51.6838 131.23 51.2815 130.691 51.0356 130.242C50.5573 129.361 50.4924 128.217 49.6364 127.571C49.2966 127.314 48.8586 127.227 48.4518 127.372C48.045 127.517 47.7611 127.89 47.589 128.284C47.1509 129.285 47.3878 130.669 46.4983 131.449C45.897 131.976 45.2443 131.48 44.8979 130.923C44.4687 130.24 44.1938 129.468 44.0508 128.675C44.0195 128.498 43.749 128.572 43.7803 128.749L43.7736 128.753Z" fill="white"/>
<path d="M45.7543 136.882C45.884 137.608 46.1276 138.31 46.4875 138.956C46.7512 139.43 47.1088 139.951 47.6766 140.067C48.7226 140.282 49.2769 139.048 49.4378 138.223C49.5988 137.398 49.6725 135.61 50.922 135.713C51.4875 135.76 51.8473 136.303 52.0753 136.764C52.3212 137.26 52.4285 137.805 52.6654 138.304C53.0722 139.164 54.0243 140.112 54.9787 139.334C55.4794 138.925 55.7275 138.245 56.0047 137.687C56.1745 137.347 56.3422 137.005 56.5121 136.665C56.6082 136.471 56.7065 136.276 56.8026 136.082C56.8898 135.905 56.9904 135.523 57.2653 135.577C57.4083 135.606 57.5939 135.776 57.7101 135.858C57.8911 135.988 58.0699 136.12 58.2443 136.258C58.5326 136.486 58.812 136.728 59.0802 136.978C59.3484 137.228 59.5876 137.49 59.8402 137.745C60.0458 137.953 60.2872 138.143 60.5934 138.156C61.141 138.183 61.5635 137.689 61.7736 137.237C61.8943 136.978 61.9613 136.699 62.0552 136.428C62.1044 136.287 62.1558 136.147 62.2251 136.013C62.2854 135.899 62.4016 135.657 62.5357 135.61C62.7503 135.536 63.0543 135.887 63.1616 136.026C63.3158 136.225 63.4365 136.448 63.5706 136.661C63.8433 137.09 64.1808 137.521 64.7195 137.595C65.3073 137.678 65.8974 137.342 66.2416 136.882C66.6998 136.267 66.7691 135.458 66.8317 134.721L66.6216 134.841C67.6095 135.581 68.5974 136.321 69.5831 137.061C69.6457 137.108 69.7351 137.068 69.7754 137.012C70.3207 136.207 70.8661 135.4 71.4115 134.595L71.1924 134.625C72.0798 135.396 73.5371 135.295 74.2881 134.379C74.4021 134.24 74.2054 134.041 74.0914 134.182C73.441 134.973 72.1714 135.105 71.3914 134.428C71.3198 134.365 71.2237 134.379 71.1723 134.457C70.6269 135.262 70.0816 136.068 69.5362 136.873L69.7284 136.824C68.7405 136.084 67.7526 135.344 66.7669 134.604C66.673 134.535 66.5635 134.631 66.5568 134.725C66.4986 135.416 66.4405 136.198 65.9913 136.761C65.6225 137.224 64.9139 137.537 64.373 137.17C63.6958 136.712 63.5728 135.581 62.7123 135.355C62.491 135.297 62.386 135.351 62.2295 135.523C62.0507 135.718 61.9367 135.957 61.8429 136.2C61.626 136.768 61.5232 137.526 60.9041 137.814C60.5241 137.991 60.2313 137.747 59.9787 137.483C59.7262 137.22 59.4758 136.958 59.2076 136.712C58.7114 136.256 58.1772 135.809 57.6095 135.445C57.4285 135.329 57.2094 135.219 56.9948 135.32C56.7356 135.44 56.635 135.802 56.5188 136.037C56.1813 136.719 55.8415 137.401 55.504 138.08C55.2447 138.601 54.9095 139.323 54.2344 139.343C53.6645 139.359 53.2622 138.82 53.0163 138.371C52.538 137.49 52.4732 136.346 51.6171 135.7C51.2774 135.443 50.8393 135.355 50.4325 135.501C50.0257 135.646 49.7418 136.019 49.5697 136.413C49.1316 137.414 49.3686 138.798 48.479 139.578C47.8777 140.105 47.2251 139.609 46.8786 139.052C46.4495 138.368 46.1745 137.597 46.0315 136.804C46.0002 136.627 45.7297 136.701 45.761 136.878L45.7543 136.882Z" fill="white"/>
<path d="M81.6165 25.932C76.8333 24.278 70.823 23.3706 66.7953 24.7608C66.7796 24.7608 66.7707 24.7653 66.7707 24.7653C66.7707 24.7653 49.54 21.9378 44.5311 36.6473L42.2892 42.0071C42.2892 42.0071 47.8123 38.6991 49.9602 46.5713C49.9602 46.5713 59.3702 42.9012 64.8083 37.9995C68.4918 41.8574 79.9692 52.2105 91.5047 45.3844C91.5047 45.3844 93.1252 40.9276 96.5405 41.3634C99.5713 41.7501 91.203 29.2445 81.6165 25.932Z" fill="black"/>
<path d="M61.0146 56.7858C61.812 56.7858 62.4585 56.1393 62.4585 55.3419C62.4585 54.5445 61.812 53.8979 61.0146 53.8979C60.2171 53.8979 59.5707 54.5445 59.5707 55.3419C59.5707 56.1393 60.2171 56.7858 61.0146 56.7858Z" fill="#231F20"/>
<path d="M81.6161 57.6354C82.4136 57.6354 83.06 56.9889 83.06 56.1914C83.06 55.394 82.4136 54.7476 81.6161 54.7476C80.8187 54.7476 80.1722 55.394 80.1722 56.1914C80.1722 56.9889 80.8187 57.6354 81.6161 57.6354Z" fill="#231F20"/>
<path d="M69.7274 55.7534L68.6546 67.6936H73.6546" stroke="#231F20" stroke-miterlimit="10"/>
<path d="M63.2388 52.0989C63.2388 52.0989 59.8012 49.4681 57.0944 52.8007" stroke="#231F20" stroke-miterlimit="10"/>
<path d="M84.687 52.2419C84.687 52.2419 81.2494 49.6112 78.5426 52.9438" stroke="#231F20" stroke-miterlimit="10"/>
<path d="M79.6112 73.5249C75.0493 79.9822 68.6546 75.6081 68.6546 75.6081L79.6112 73.5249Z" fill="black"/>
<path d="M44.5285 36.6473H95.0627L94.0547 22.7157L112.45 15.6996L72.651 0L32.8522 15.6996L47.5571 21.616L44.5285 36.6473Z" fill="#FF6839"/>
<path d="M47.5572 21.6157L71.1558 30.0623L94.0548 22.7154" stroke="#1E2382" stroke-miterlimit="10"/>
<path d="M65.3913 10.8982C65.3913 10.8982 23.1271 7.6304 21.7033 31.4368C20.2817 55.2433 17.0676 65.0533 10.6796 67.5522" stroke="#1E2382" stroke-miterlimit="10"/>
<path d="M0 72.4517C0 72.4517 10.0872 64.26 12.253 66.998C14.9978 70.4647 7.50112 80.791 7.50112 80.791C7.50112 80.791 0.92311 77.0338 0.00223391 72.4517H0Z" fill="#1E2382"/>
<path d="M20.7419 173H142.991" stroke="#0B0C2E" stroke-miterlimit="10"/>
<path d="M10.0446 192.455V207H6.96934V192.455H10.0446ZM15.0535 192.455V193.989C15.0535 194.424 14.9683 194.869 14.7978 195.324C14.6321 195.774 14.4096 196.2 14.1302 196.602C13.8509 197 13.5455 197.339 13.214 197.618L11.8788 196.83C12.1155 196.455 12.3239 196.041 12.5038 195.587C12.6884 195.132 12.7808 194.604 12.7808 194.003V192.455H15.0535ZM16.6391 207V196.091H19.5226V198.016H19.6505C19.8777 197.376 20.2565 196.872 20.7868 196.503C21.3171 196.134 21.9516 195.949 22.6902 195.949C23.4383 195.949 24.0752 196.136 24.6007 196.51C25.1263 196.879 25.4767 197.381 25.6519 198.016H25.7655C25.988 197.391 26.3905 196.891 26.9729 196.517C27.56 196.138 28.2537 195.949 29.0539 195.949C30.0719 195.949 30.8981 196.273 31.5326 196.922C32.1718 197.566 32.4914 198.48 32.4914 199.663V207H29.4729V200.26C29.4729 199.654 29.3119 199.199 28.9899 198.896C28.668 198.593 28.2655 198.442 27.7826 198.442C27.2333 198.442 26.8048 198.617 26.497 198.967C26.1893 199.313 26.0354 199.77 26.0354 200.338V207H23.1022V200.196C23.1022 199.661 22.9483 199.235 22.6405 198.918C22.3375 198.6 21.9374 198.442 21.4402 198.442C21.1041 198.442 20.801 198.527 20.5311 198.697C20.266 198.863 20.0553 199.098 19.899 199.401C19.7428 199.699 19.6647 200.049 19.6647 200.452V207H16.6391ZM39.567 207V192.455H42.6423V198.456H48.8852V192.455H51.9534V207H48.8852V200.991H42.6423V207H39.567ZM59.4036 207.213C58.2815 207.213 57.3156 206.986 56.5059 206.531C55.701 206.072 55.0807 205.423 54.6451 204.585C54.2095 203.742 53.9917 202.746 53.9917 201.595C53.9917 200.473 54.2095 199.488 54.6451 198.641C55.0807 197.793 55.6939 197.133 56.4846 196.659C57.2801 196.186 58.2128 195.949 59.2829 195.949C60.0026 195.949 60.6726 196.065 61.2929 196.297C61.9179 196.524 62.4624 196.867 62.9264 197.327C63.3951 197.786 63.7597 198.364 64.0201 199.06C64.2805 199.751 64.4108 200.561 64.4108 201.489V202.32H55.1991V200.445H61.5627C61.5627 200.009 61.468 199.623 61.2786 199.287C61.0893 198.951 60.8265 198.688 60.4903 198.499C60.1589 198.304 59.773 198.207 59.3326 198.207C58.8733 198.207 58.4661 198.314 58.111 198.527C57.7607 198.735 57.486 199.017 57.2872 199.372C57.0883 199.723 56.9865 200.113 56.9818 200.544V202.327C56.9818 202.866 57.0812 203.333 57.2801 203.726C57.4837 204.119 57.7701 204.422 58.1394 204.635C58.5088 204.848 58.9467 204.955 59.4534 204.955C59.7895 204.955 60.0973 204.907 60.3767 204.812C60.656 204.718 60.8951 204.576 61.094 204.386C61.2929 204.197 61.4444 203.965 61.5485 203.69L64.3468 203.875C64.2048 204.547 63.9136 205.134 63.4733 205.636C63.0376 206.134 62.4742 206.522 61.7829 206.801C61.0964 207.076 60.3033 207.213 59.4036 207.213ZM66.3852 207V196.091H69.3184V197.994H69.4321C69.6309 197.317 69.9647 196.806 70.4335 196.46C70.9022 196.11 71.442 195.935 72.0528 195.935C72.2043 195.935 72.3677 195.944 72.5429 195.963C72.718 195.982 72.8719 196.008 73.0045 196.041V198.726C72.8625 198.683 72.666 198.645 72.415 198.612C72.1641 198.579 71.9344 198.562 71.7261 198.562C71.281 198.562 70.8833 198.66 70.5329 198.854C70.1873 199.043 69.9126 199.308 69.709 199.649C69.5102 199.99 69.4108 200.383 69.4108 200.828V207H66.3852ZM79.0326 207.213C77.9104 207.213 76.9445 206.986 76.1348 206.531C75.3299 206.072 74.7096 205.423 74.274 204.585C73.8384 203.742 73.6206 202.746 73.6206 201.595C73.6206 200.473 73.8384 199.488 74.274 198.641C74.7096 197.793 75.3228 197.133 76.1135 196.659C76.909 196.186 77.8417 195.949 78.9118 195.949C79.6315 195.949 80.3015 196.065 80.9218 196.297C81.5468 196.524 82.0913 196.867 82.5553 197.327C83.024 197.786 83.3886 198.364 83.649 199.06C83.9094 199.751 84.0397 200.561 84.0397 201.489V202.32H74.828V200.445H81.1916C81.1916 200.009 81.0969 199.623 80.9076 199.287C80.7182 198.951 80.4554 198.688 80.1192 198.499C79.7878 198.304 79.4019 198.207 78.9615 198.207C78.5023 198.207 78.0951 198.314 77.7399 198.527C77.3896 198.735 77.1149 199.017 76.9161 199.372C76.7172 199.723 76.6154 200.113 76.6107 200.544V202.327C76.6107 202.866 76.7101 203.333 76.909 203.726C77.1126 204.119 77.399 204.422 77.7683 204.635C78.1377 204.848 78.5756 204.955 79.0823 204.955C79.4184 204.955 79.7262 204.907 80.0056 204.812C80.2849 204.718 80.524 204.576 80.7229 204.386C80.9218 204.197 81.0733 203.965 81.1774 203.69L83.9757 203.875C83.8337 204.547 83.5425 205.134 83.1022 205.636C82.6666 206.134 82.1031 206.522 81.4118 206.801C80.7253 207.076 79.9322 207.213 79.0326 207.213ZM96.4456 196.091V198.364H89.8759V196.091H96.4456ZM91.3674 193.477H94.393V203.648C94.393 203.927 94.4356 204.145 94.5208 204.301C94.6061 204.453 94.7244 204.559 94.8759 204.621C95.0322 204.682 95.2121 204.713 95.4157 204.713C95.5578 204.713 95.6998 204.701 95.8419 204.678C95.9839 204.649 96.0928 204.628 96.1686 204.614L96.6444 206.865C96.4929 206.912 96.2798 206.967 96.0052 207.028C95.7306 207.095 95.3968 207.135 95.0038 207.149C94.2746 207.178 93.6354 207.08 93.0862 206.858C92.5417 206.635 92.1179 206.29 91.8149 205.821C91.5118 205.352 91.3627 204.76 91.3674 204.045V193.477ZM103.228 207.213C102.125 207.213 101.171 206.979 100.366 206.51C99.5658 206.036 98.9479 205.378 98.5123 204.536C98.0767 203.688 97.8589 202.705 97.8589 201.588C97.8589 200.461 98.0767 199.476 98.5123 198.634C98.9479 197.786 99.5658 197.128 100.366 196.659C101.171 196.186 102.125 195.949 103.228 195.949C104.331 195.949 105.283 196.186 106.083 196.659C106.888 197.128 107.509 197.786 107.944 198.634C108.38 199.476 108.598 200.461 108.598 201.588C108.598 202.705 108.38 203.688 107.944 204.536C107.509 205.378 106.888 206.036 106.083 206.51C105.283 206.979 104.331 207.213 103.228 207.213ZM103.242 204.869C103.744 204.869 104.163 204.727 104.5 204.443C104.836 204.154 105.089 203.761 105.259 203.264C105.435 202.767 105.522 202.201 105.522 201.567C105.522 200.932 105.435 200.366 105.259 199.869C105.089 199.372 104.836 198.979 104.5 198.69C104.163 198.402 103.744 198.257 103.242 198.257C102.736 198.257 102.31 198.402 101.964 198.69C101.623 198.979 101.365 199.372 101.19 199.869C101.019 200.366 100.934 200.932 100.934 201.567C100.934 202.201 101.019 202.767 101.19 203.264C101.365 203.761 101.623 204.154 101.964 204.443C102.31 204.727 102.736 204.869 103.242 204.869ZM115.251 207V192.455H118.326V204.464H124.562V207H115.251ZM131.513 207.213C130.391 207.213 129.425 206.986 128.615 206.531C127.81 206.072 127.19 205.423 126.754 204.585C126.319 203.742 126.101 202.746 126.101 201.595C126.101 200.473 126.319 199.488 126.754 198.641C127.19 197.793 127.803 197.133 128.594 196.659C129.389 196.186 130.322 195.949 131.392 195.949C132.112 195.949 132.782 196.065 133.402 196.297C134.027 196.524 134.572 196.867 135.036 197.327C135.505 197.786 135.869 198.364 136.13 199.06C136.39 199.751 136.52 200.561 136.52 201.489V202.32H127.308V200.445H133.672C133.672 200.009 133.577 199.623 133.388 199.287C133.199 198.951 132.936 198.688 132.6 198.499C132.268 198.304 131.882 198.207 131.442 198.207C130.983 198.207 130.576 198.314 130.22 198.527C129.87 198.735 129.595 199.017 129.397 199.372C129.198 199.723 129.096 200.113 129.091 200.544V202.327C129.091 202.866 129.191 203.333 129.389 203.726C129.593 204.119 129.88 204.422 130.249 204.635C130.618 204.848 131.056 204.955 131.563 204.955C131.899 204.955 132.207 204.907 132.486 204.812C132.765 204.718 133.005 204.576 133.203 204.386C133.402 204.197 133.554 203.965 133.658 203.69L136.456 203.875C136.314 204.547 136.023 205.134 135.583 205.636C135.147 206.134 134.584 206.522 133.892 206.801C133.206 207.076 132.413 207.213 131.513 207.213ZM141.605 207.206C140.909 207.206 140.289 207.085 139.745 206.844C139.2 206.598 138.769 206.235 138.452 205.757C138.139 205.274 137.983 204.673 137.983 203.953C137.983 203.347 138.094 202.838 138.317 202.426C138.54 202.014 138.843 201.683 139.226 201.432C139.61 201.181 140.045 200.991 140.533 200.864C141.025 200.736 141.541 200.646 142.081 200.594C142.716 200.527 143.227 200.466 143.615 200.409C144.004 200.348 144.285 200.258 144.46 200.139C144.636 200.021 144.723 199.846 144.723 199.614V199.571C144.723 199.121 144.581 198.773 144.297 198.527C144.018 198.281 143.62 198.158 143.104 198.158C142.559 198.158 142.126 198.278 141.804 198.52C141.482 198.757 141.269 199.055 141.165 199.415L138.367 199.188C138.509 198.525 138.788 197.952 139.205 197.469C139.621 196.981 140.159 196.607 140.817 196.347C141.48 196.081 142.247 195.949 143.118 195.949C143.724 195.949 144.304 196.02 144.858 196.162C145.417 196.304 145.912 196.524 146.343 196.822C146.778 197.121 147.121 197.504 147.372 197.973C147.623 198.437 147.749 198.993 147.749 199.642V207H144.88V205.487H144.794C144.619 205.828 144.385 206.129 144.091 206.389C143.798 206.645 143.445 206.846 143.033 206.993C142.621 207.135 142.145 207.206 141.605 207.206ZM142.472 205.118C142.917 205.118 143.31 205.03 143.651 204.855C143.992 204.675 144.259 204.434 144.453 204.131C144.647 203.828 144.745 203.484 144.745 203.101V201.943C144.65 202.005 144.52 202.062 144.354 202.114C144.193 202.161 144.011 202.206 143.807 202.249C143.603 202.286 143.4 202.322 143.196 202.355C142.993 202.384 142.808 202.41 142.642 202.433C142.287 202.485 141.977 202.568 141.712 202.682C141.447 202.795 141.241 202.949 141.094 203.143C140.947 203.333 140.874 203.57 140.874 203.854C140.874 204.266 141.023 204.58 141.321 204.798C141.624 205.011 142.008 205.118 142.472 205.118ZM150.096 207V196.091H153.029V197.994H153.143C153.342 197.317 153.676 196.806 154.144 196.46C154.613 196.11 155.153 195.935 155.764 195.935C155.915 195.935 156.079 195.944 156.254 195.963C156.429 195.982 156.583 196.008 156.715 196.041V198.726C156.573 198.683 156.377 198.645 156.126 198.612C155.875 198.579 155.645 198.562 155.437 198.562C154.992 198.562 154.594 198.66 154.244 198.854C153.898 199.043 153.624 199.308 153.42 199.649C153.221 199.99 153.122 200.383 153.122 200.828V207H150.096ZM161.305 200.693V207H158.28V196.091H161.163V198.016H161.291C161.533 197.381 161.937 196.879 162.506 196.51C163.074 196.136 163.763 195.949 164.572 195.949C165.33 195.949 165.99 196.115 166.554 196.446C167.117 196.777 167.555 197.251 167.868 197.866C168.18 198.477 168.337 199.206 168.337 200.054V207H165.311V200.594C165.316 199.926 165.145 199.405 164.8 199.031C164.454 198.652 163.978 198.463 163.372 198.463C162.965 198.463 162.605 198.551 162.292 198.726C161.985 198.901 161.743 199.157 161.568 199.493C161.398 199.824 161.31 200.224 161.305 200.693Z" fill="#0B0C2E"/>
</svg>
