<svg width="238" height="214" viewBox="0 0 238 214" fill="none" xmlns="http://www.w3.org/2000/svg">
<path d="M175.448 0H2.81302C1.25943 0 0 1.25943 0 2.81302V124.401C0 125.955 1.25943 127.214 2.81302 127.214H175.448C177.002 127.214 178.261 125.955 178.261 124.401V2.81302C178.261 1.25943 177.002 0 175.448 0Z" fill="#E6F6F9"/>
<path d="M155.457 17.4946H22.802C21.2484 17.4946 19.989 18.7541 19.989 20.3076V107.41C19.989 108.964 21.2484 110.224 22.802 110.224H155.457C157.011 110.224 158.27 108.964 158.27 107.41V20.3076C158.27 18.7541 157.011 17.4946 155.457 17.4946Z" fill="#00A9C1" stroke="white" stroke-miterlimit="10"/>
<path d="M135.789 133.653L133.59 132.568L127.554 141.356C127.554 141.356 114.017 121.471 110.624 113.824C110.624 113.824 114.856 106.241 112.767 100.844C112.767 100.844 111.794 97.3139 104.443 95.7902C104.443 95.7902 101.93 94.536 100.16 97.9023C100.16 97.9023 95.563 94.3485 93.5634 97.8226C93.5634 97.8226 91.1325 100.76 92.0444 103.123C92.0444 103.123 89.2104 102.638 89.9511 106.083C89.9511 106.083 84.8829 107.738 89.0697 113.004C89.0697 113.004 88.4203 112.518 88.0311 112.725C87.4732 113.025 87.1381 114.173 87.3842 115.273C87.71 116.733 90.0213 120.118 92.0702 119.354C93.1813 118.941 92.0702 116.161 92.0702 116.161C92.0702 116.161 92.8977 116.337 93.4861 117.01C94.2714 117.912 94.9536 119.359 95.1645 119.663C97.0915 122.413 99.4004 120.521 99.4004 120.521C99.4004 120.521 100.383 154.212 112.868 165.438C112.868 165.438 123.501 177.97 136.835 170.382C136.835 170.382 143.67 166.645 146.033 161.42L135.792 133.651L135.789 133.653Z" fill="white"/>
<path d="M100.777 98.2379C100.777 98.2379 96.5664 94.9584 94.0886 97.305C91.6108 99.6515 90.23 102.164 93.3783 104.471C96.5265 106.778 98.6597 108.316 100.219 107.535C101.775 106.754 102.657 104.187 99.9561 102.38C97.2579 100.573 96.6227 99.7241 96.6227 99.7241" stroke="black" stroke-miterlimit="10"/>
<path d="M91.8356 102.753C91.8356 102.753 89.229 102.626 89.951 106.084C90.6707 109.542 94.6932 113.079 97.8016 113.049C100.094 113.025 101.147 109.106 99.398 108.581C97.6492 108.053 97.3444 107.132 97.3444 107.132" stroke="black" stroke-miterlimit="10"/>
<path d="M89.9489 106.084C89.9489 106.084 86.3577 107.015 87.6704 110.62C88.9832 114.225 92.8276 116.223 94.7263 115.932C96.0063 115.735 95.4765 112.509 95.4765 112.509" stroke="black" stroke-miterlimit="10"/>
<path d="M92.0702 115.957L92.8602 116.447C93.4486 116.811 93.9198 117.338 94.1964 117.973C94.8692 119.525 96.557 122.348 99.4005 120.526C99.4005 120.526 98.9645 155.712 116.804 169.025C134.643 182.338 149.25 157.944 149.25 157.944L135.494 129.802L127.557 141.359C127.557 141.359 113.231 121.044 110.627 113.826C110.627 113.826 113.815 108.381 113.348 104.049" stroke="black" stroke-miterlimit="10"/>
<path d="M88.6454 112.439C88.6454 112.439 86.9247 113.048 87.3818 115.275C87.3818 115.275 88.9173 119.821 91.4841 119.467C92.307 119.354 92.8438 118.616 92.2531 117.139C92.2531 117.139 91.674 115.981 91.8592 115.833C92.0444 115.686 92.6844 115.62 92.6844 115.62" stroke="black" stroke-miterlimit="10"/>
<path d="M100.61 99.8883L87.302 49.4743L89.4681 48.4897L107.553 112.39L104.799 113.885L100.61 99.8883Z" fill="#FF6839"/>
<path d="M111.067 98.6341C111.067 98.6341 105.329 92.4291 101.259 94.3349C98.6502 95.5562 101.393 99.4733 103.163 100.242C104.933 101.011 104.082 102.127 104.466 103.489C104.851 104.851 106.463 109.408 106.463 109.408C106.463 109.408 111.093 104.743 111.067 102.296C111.041 99.8484 111.421 99.3233 111.067 98.6341Z" fill="white"/>
<path d="M104.281 101.89C104.281 101.89 104.52 102.652 104.042 103.549C103.564 104.447 101.503 110.446 106.782 110.73C112.062 111.013 112.153 105.842 111.22 103.627C110.287 101.411 105.463 100.943 104.281 101.89Z" fill="white"/>
<path d="M107.272 110.842C102.122 110.681 102.851 105.198 103.69 104.049C103.847 103.833 103.962 103.594 104.044 103.35C104.448 102.141 103.967 100.812 102.966 100.024C101.311 98.723 100.343 98.6902 100.188 96.7023C99.9913 94.1472 102.706 93.9713 102.706 93.9713C106.363 93.6642 111.222 98.7652 111.222 98.7652C111.222 98.7652 113.311 100.816 113.391 104.675" stroke="black" stroke-miterlimit="10"/>
<path d="M169.636 21.4653C174.803 19.2735 180.246 18.6229 184.46 22.3647C186.668 24.325 188.057 25.6951 189.01 26.6411C189.484 27.1118 189.861 27.4884 190.177 27.7778C190.491 28.0664 190.771 28.2931 191.053 28.4507C191.668 28.794 192.218 28.7621 192.965 28.6528C193.714 28.5433 194.742 28.3409 196.487 28.1997C198.134 28.067 199.998 28.5423 201.953 29.4829C203.904 30.4214 205.913 31.8068 207.834 33.4478C211.681 36.733 215.126 40.9958 217.023 44.6079C217.957 46.387 218.267 47.8289 218.216 49.0405C218.165 50.2504 217.75 51.2763 217.159 52.2231C216.561 53.1823 215.801 54.0332 215.051 54.9233C214.317 55.7949 213.591 56.7073 213.164 57.7319C212.787 58.6362 211.717 60.5493 210.243 62.9722C208.777 65.3822 206.93 68.2655 205.021 71.0942C203.11 73.9237 201.14 76.6932 199.426 78.8784C198.569 79.9714 197.78 80.9127 197.098 81.6401C196.492 82.2864 195.996 82.7358 195.628 82.981L195.478 83.0737C195.441 83.0945 195.322 83.1334 195.028 83.021C194.742 82.9112 194.373 82.6866 193.925 82.3345C193.032 81.6333 191.921 80.505 190.657 79.0601C188.135 76.176 185.073 72.1116 182.031 67.9097C178.99 63.7081 175.985 59.39 173.566 55.9897C172.358 54.2925 171.295 52.8233 170.452 51.7173C170.031 51.1645 169.66 50.6973 169.352 50.3364C169.053 49.9873 168.783 49.7026 168.567 49.5454C167.307 48.6307 166.422 47.6448 165.854 46.8901C165.57 46.5132 165.365 46.1947 165.233 45.9731C165.167 45.8625 165.119 45.7756 165.088 45.7183C165.073 45.6898 165.062 45.6682 165.055 45.6548C165.052 45.6484 165.049 45.6438 165.048 45.6411C165.047 45.6398 165.047 45.6385 165.047 45.6382V45.6392L165.011 45.5649L164.953 45.5063L164.945 45.4985C164.94 45.4926 164.931 45.4832 164.919 45.4712C164.896 45.4472 164.861 45.4111 164.816 45.3638C164.725 45.2688 164.59 45.128 164.422 44.9478C164.085 44.5871 163.609 44.0669 163.054 43.4302C161.941 42.1551 160.515 40.4191 159.25 38.5659C157.979 36.7044 156.897 34.761 156.438 33.0669C155.978 31.3694 156.176 30.0794 157.215 29.2778C159.777 27.3037 164.481 23.652 169.636 21.4653Z" fill="black" stroke="black"/>
<path d="M151.012 104.435C157.575 97.3991 169.196 99.5107 172.866 108.378L172.903 108.469L175.214 114.162C178.449 122.136 176.674 131.268 170.685 137.445L146.201 162.701L132.684 128.968C132.712 128.924 132.745 128.874 132.781 128.816C132.937 128.574 133.168 128.215 133.475 127.749C134.087 126.817 134.998 125.455 136.185 123.739C138.559 120.308 142.043 115.462 146.476 109.812C148.151 107.677 149.637 105.907 151.012 104.435Z" fill="#F1F5F9" stroke="black"/>
<path d="M168.087 97.4409C174.039 97.0533 181.429 97.1787 188.648 97.52C195.863 97.8612 202.894 98.4171 208.121 98.8882C210.734 99.1237 212.897 99.3384 214.405 99.4937C215.159 99.5713 215.75 99.6338 216.152 99.6772C216.353 99.699 216.507 99.7156 216.61 99.7271C216.658 99.7323 216.695 99.7368 216.721 99.7397C216.73 99.7431 216.742 99.7472 216.754 99.7515C216.814 99.7725 216.903 99.805 217.019 99.8501C217.25 99.9407 217.585 100.081 217.992 100.28C218.808 100.678 219.907 101.305 221.037 102.22C223.294 104.047 225.667 107.011 226.174 111.603C226.695 116.321 227.256 131.599 225.331 145.684C224.368 152.73 222.788 159.434 220.298 164.362C217.805 169.294 214.471 172.325 210.027 172.325C196.725 172.324 181.735 172.323 170.07 172.324C164.239 172.324 159.238 172.325 155.695 172.325H150.568C150.569 172.252 150.568 172.171 150.568 172.083C150.57 171.599 150.573 170.887 150.578 169.979C150.589 168.163 150.612 165.56 150.658 162.416C150.75 156.125 150.935 147.667 151.306 138.996C151.677 130.322 152.235 121.443 153.072 114.307C153.491 110.739 153.978 107.617 154.544 105.18C154.827 103.961 155.128 102.922 155.445 102.089C155.766 101.249 156.091 100.652 156.408 100.287C157.044 99.5549 158.414 98.9251 160.477 98.437C162.509 97.956 165.11 97.6348 168.087 97.4409Z" fill="#F1F5F9" stroke="black"/>
<path d="M177.183 87.4757L175.919 101.937C175.919 101.937 178.481 117.069 197.455 104.028L195.725 83.5093C195.725 83.5093 183.859 76.3619 177.185 87.4757H177.183Z" fill="white" stroke="black" stroke-miterlimit="10"/>
<path d="M165.689 42.7651C165.689 42.7651 148.37 86.8264 175.729 90.0543C187.26 91.414 195.657 84.1446 199.982 79.1304C201.056 77.888 201.89 76.4862 202.603 75.0281C203.187 73.8326 204.98 72.133 210.475 72.3745C218.846 72.7402 216.009 63.8065 211.143 61.9569C206.279 60.105 203.747 64.5027 203.747 64.5027C203.747 64.5027 198.991 64.5004 200.261 60.0488C201.529 55.5972 202.317 52.3552 193.177 54.8236C184.039 57.292 182.75 47.4042 179.224 39.4668C177.445 35.4606 174.245 35.1489 171.512 35.824C168.948 36.4569 167.077 38.5784 166.482 41.1523C166.339 41.7688 166.095 42.3549 165.689 42.7675V42.7651Z" fill="white" stroke="black" stroke-miterlimit="10"/>
<path d="M167.254 57.838C167.272 57.4154 167.655 57.0491 168.157 57.071C168.659 57.093 169.009 57.4913 168.99 57.9138C168.972 58.3363 168.589 58.7026 168.087 58.6808C167.585 58.6589 167.235 58.2605 167.254 57.838Z" fill="black" stroke="black"/>
<path d="M186.422 62.0587C186.44 61.6362 186.823 61.2698 187.325 61.2917C187.827 61.3137 188.177 61.712 188.158 62.1345C188.14 62.557 187.757 62.9233 187.255 62.9015C186.753 62.8796 186.403 62.4812 186.422 62.0587Z" fill="black" stroke="black"/>
<path d="M176.079 59.6504L172.07 70.2297L178.261 72.4988" stroke="black" stroke-miterlimit="10"/>
<path d="M184.792 57.7C184.792 57.7 186.513 55.8551 189.956 57.925" stroke="black" stroke-miterlimit="10"/>
<path d="M165.689 51.9915C165.689 51.9915 167.41 50.1466 170.853 52.2165" stroke="black" stroke-miterlimit="10"/>
<path d="M176.772 79.7938C176.772 79.7938 179.93 81.5027 184.942 78.9194" stroke="black" stroke-miterlimit="10"/>
<path d="M212.559 68.3164C212.559 68.3164 210.463 64.6149 207.791 66.7247C205.118 68.8368 205.236 69.8401 205.236 69.8401" stroke="black" stroke-miterlimit="10"/>
<path d="M223.999 103.726C223.999 103.726 234.048 104.48 233.143 130.173C232.238 155.865 232.895 172.827 232.895 172.827H207.667V111.504C207.667 111.504 210.076 100.568 223.999 103.728V103.726Z" fill="white" stroke="black" stroke-miterlimit="10"/>
<path d="M214.544 99.7432C219.274 99.1468 224.295 100.369 227.596 103.447C232.865 108.359 236.869 117.726 236.729 131.166C236.598 143.918 236.463 148.995 236.361 150.883C236.358 150.932 236.354 150.979 236.351 151.023L199.316 151.03C199.286 150.835 199.248 150.575 199.203 150.254C199.096 149.478 198.952 148.347 198.807 146.935C198.516 144.11 198.219 140.159 198.194 135.659C198.144 126.725 199.168 115.691 203.387 106.99L203.506 106.751C205.489 102.737 209.814 100.34 214.544 99.7432Z" fill="#F1F5F9" stroke="black"/>
<path d="M236.69 151.524H205.641C205.641 151.524 201.527 120.515 209.333 107.533" stroke="black" stroke-miterlimit="10"/>
<path d="M163.835 67.9578C169.568 67.9578 174.215 63.3105 174.215 57.5778C174.215 51.845 169.568 47.1978 163.835 47.1978C158.102 47.1978 153.455 51.845 153.455 57.5778C153.455 63.3105 158.102 67.9578 163.835 67.9578Z" stroke="black" stroke-miterlimit="10"/>
<path d="M187.439 73.5905C193.104 73.5905 197.697 68.9978 197.697 63.3324C197.697 57.6669 193.104 53.0742 187.439 53.0742C181.773 53.0742 177.18 57.6669 177.18 63.3324C177.18 68.9978 181.773 73.5905 187.439 73.5905Z" stroke="black" stroke-miterlimit="10"/>
<path d="M174.039 59.4625C174.039 59.4625 175.579 57.7934 177.642 60.2736" stroke="black" stroke-miterlimit="10"/>
<path d="M93.8401 67.4751C93.7979 67.3555 93.5986 67.2922 93.5377 67.4352C93.3595 67.8455 93.1462 68.1854 92.8579 68.5276C92.6422 68.7855 92.3867 69.0457 92.3539 69.395C92.3492 69.4395 92.4055 69.4676 92.443 69.4465C92.7735 69.2426 93.0243 68.8886 93.2704 68.5956C93.3103 68.5487 93.3478 68.4995 93.3853 68.4502C93.1298 69.7583 92.8063 71.0429 92.232 72.2548C91.8546 73.0495 91.3505 73.7739 90.7269 74.3904C90.2816 74.8288 89.7729 75.0491 89.2571 75.2999C87.4732 73.8254 85.1244 73.08 83.1975 73.9708C80.9072 73.9778 79.1303 76.097 78.4247 78.3239C78.0637 78.1645 77.6464 78.0895 77.2948 77.9161C76.533 77.5433 75.8532 77.0042 75.2179 76.4509C73.9778 75.3773 73.0285 74.0364 72.0767 72.712C72.0486 72.6206 72.0204 72.5291 71.9876 72.4424C72.8901 72.9628 73.8114 73.3707 74.7983 73.7692C74.8756 73.7997 74.9084 73.6872 74.8498 73.645C73.8957 72.9441 72.7869 72.576 71.7719 72.0017C71.7508 71.9665 71.7321 71.929 71.711 71.8962C71.6735 71.8399 71.5961 71.793 71.5258 71.8212C71.5047 71.8282 71.4133 71.854 71.4672 71.847C71.3406 71.861 71.2843 72.0158 71.4015 72.0931C71.4226 72.1072 71.4437 72.1166 71.4648 72.1306C71.4648 72.14 71.4601 72.1494 71.4648 72.1564C71.5726 72.4283 71.6618 72.6909 71.7298 72.9745C71.8517 73.4738 71.8657 74.006 72.0509 74.4842C72.0766 74.5498 72.1868 74.5686 72.2032 74.4842C72.2759 74.1325 72.2689 73.6918 72.1986 73.2558C73.0449 74.6131 73.9802 75.9047 75.1593 77.0089C75.7641 77.5762 77.2316 78.8186 78.2841 78.8233C78.2208 79.0835 78.1692 79.3413 78.1363 79.5968C77.8761 81.7019 78.3731 83.7109 79.4936 85.2299C78.8255 86.5567 77.6511 87.4686 76.5001 88.4438C75.0444 89.6768 73.4644 90.7645 71.7391 91.5803C72.086 91.1162 72.4869 90.6333 72.6181 90.0918C72.6275 90.0543 72.583 90.0285 72.5548 90.0542C72.0321 90.5207 71.6406 91.2123 71.2398 91.7819C71.1718 91.878 71.2633 91.9952 71.3641 91.9999C72.0955 92.0328 72.8104 92.2883 73.5441 92.3516C73.591 92.3562 73.5934 92.2882 73.5535 92.2742C72.9159 92.0304 72.358 91.7983 71.7016 91.7303C73.6872 91.0271 75.403 89.8245 77.0088 88.4719C77.7542 87.8413 79.2756 86.7888 79.8265 85.6542C80.8697 86.8497 82.3465 87.6726 84.1867 87.8859C88.861 88.4227 93.1321 83.2491 91.7326 78.8139C91.3622 77.6418 90.6004 76.5213 89.6275 75.6188C90.7387 75.2226 91.6928 73.9872 92.232 73.1152C93.1181 71.6782 93.7018 69.8497 93.6549 68.1385C93.8026 68.7222 94.0112 69.2754 94.5011 69.6786C94.5386 69.7091 94.6159 69.6833 94.5949 69.6247C94.3323 68.9097 94.0862 68.1854 93.8377 67.4657L93.8401 67.4751ZM90.2863 77.9325C89.8667 78.7834 89.4424 79.6203 88.9571 80.4407C88.4789 81.2495 87.853 82.084 87.6889 83.024C87.6795 83.0756 87.7475 83.1342 87.7897 83.0826C88.3922 82.3536 88.779 81.43 89.2479 80.6119C89.6933 79.8336 90.1456 79.0272 90.4129 78.1669C90.6332 78.5724 90.8231 78.9944 90.9591 79.4281C90.9802 79.4914 90.9919 79.5546 91.0083 79.6203C90.8465 79.8313 90.72 80.0751 90.5958 80.3071C90.4317 80.6095 90.2441 80.9823 90.3285 81.3339C90.3379 81.3761 90.3965 81.3925 90.4269 81.3597C90.6754 81.0924 90.8301 80.7174 91.0153 80.4032C91.0551 80.3353 91.0926 80.2673 91.1325 80.1993C91.4958 82.6583 89.9018 84.8361 87.7522 85.9847C87.9561 85.6753 88.1297 85.3448 88.2867 85.0752C88.8048 84.1868 89.2619 83.2491 89.6651 82.3044C89.6885 82.2504 89.6206 82.2083 89.5854 82.2575C89.0392 83.0147 88.6009 83.8445 88.1156 84.6415C87.764 85.2229 87.2107 85.7691 86.8872 86.3762C86.545 86.5075 86.1957 86.613 85.8417 86.6904C86.0925 86.2028 86.3058 85.6894 86.5168 85.1948C86.5379 85.1432 86.4724 85.101 86.4395 85.1502C86.1114 85.6565 85.7597 86.184 85.5182 86.749C85.2604 86.7935 85.0002 86.8263 84.74 86.838C84.8267 86.613 84.897 86.3786 84.9861 86.1699C85.176 85.7246 85.3799 85.2979 85.5042 84.8267C85.5159 84.7798 85.4526 84.754 85.4292 84.7939C85.1526 85.244 84.8829 85.6988 84.6274 86.1629C84.5125 86.3715 84.386 86.6036 84.3157 86.8404C83.8984 86.831 83.4859 86.7771 83.085 86.6716C83.0827 86.6716 83.0802 86.6716 83.0779 86.6692C83.1834 86.4348 83.2608 86.1817 83.3546 85.9472C83.5773 85.3846 83.8233 84.8337 84.046 84.2711C84.0695 84.2149 83.9757 84.175 83.9476 84.229C83.7038 84.7095 83.4366 85.1783 83.1904 85.6589C83.0451 85.9426 82.8623 86.2543 82.7685 86.5778C82.3794 86.4466 82.0207 86.2731 81.6949 86.0668C81.798 85.8464 81.8824 85.612 81.9809 85.4057C82.138 85.0776 82.3184 84.7306 82.3207 84.3602C82.3207 84.3086 82.2481 84.2876 82.2223 84.3344C82.0184 84.7236 81.8332 85.1244 81.6246 85.5136C81.5589 85.6355 81.4885 85.762 81.4323 85.8933C80.9892 85.5698 80.6095 85.1783 80.293 84.7376C80.5251 84.3461 80.7454 83.95 80.9681 83.5491C81.1955 83.1413 81.4628 82.7052 81.4956 82.2294C81.4979 82.1942 81.4487 82.1731 81.4253 82.1989C81.0995 82.6021 80.8487 83.0826 80.5697 83.5187C80.3681 83.8351 80.2063 84.1328 80.1009 84.4587C79.8524 84.0695 79.646 83.6523 79.4843 83.2092C79.6437 82.8928 79.7913 82.5669 79.9531 82.2622C80.2696 81.6738 80.6048 81.0924 80.8299 80.4618C80.8463 80.4196 80.7829 80.3962 80.7595 80.4314C80.4055 80.9893 80.0914 81.5753 79.7679 82.152C79.639 82.3841 79.496 82.6208 79.3648 82.8623C79.0248 81.7582 78.9381 80.5556 79.0928 79.4281C79.346 77.5973 80.1665 76.2657 81.4112 75.4758C81.3596 75.5672 81.4768 75.6657 81.5636 75.6164C81.6011 75.5953 81.6409 75.5766 81.6808 75.5555C81.5308 75.804 81.3854 76.0548 81.2401 76.2916C80.8533 76.9198 80.4572 77.5738 80.3892 78.3193C80.3845 78.3708 80.4525 78.3779 80.4782 78.3427C80.9518 77.691 81.2659 76.9221 81.6738 76.2259C81.866 75.8977 82.0934 75.5742 82.295 75.2413C82.8177 74.9975 83.3428 74.81 83.8726 74.6928C83.7484 74.8499 83.6381 75.0187 83.5327 75.1757C83.235 75.6281 83.0076 76.104 82.881 76.6314C82.8717 76.6736 82.9279 76.7135 82.9584 76.676C83.2303 76.3478 83.4459 75.9892 83.6546 75.6164C83.8421 75.2836 84.0977 74.9718 84.3016 74.6436C84.4399 74.6366 84.5782 74.6272 84.7212 74.6295C84.7892 74.6295 84.829 74.5991 84.8548 74.5615C85.1572 74.5522 85.4643 74.5756 85.7714 74.6202C85.5534 74.9554 85.4175 75.3867 85.2674 75.7102C85.2464 75.7547 85.3025 75.8063 85.34 75.7665C85.6073 75.4734 85.9918 75.103 86.1629 74.6952C86.4887 74.7702 86.8193 74.8733 87.1545 75.0233C87.4053 75.1359 87.6468 75.2718 87.8812 75.4171C87.8015 75.5226 87.7335 75.6398 87.6819 75.7406C87.4053 76.2704 86.9833 76.9081 87.0724 77.5246C87.0794 77.5738 87.1475 77.5832 87.1779 77.5527C87.6397 77.1144 87.7381 76.4228 88.0358 75.8766C88.071 75.811 88.1249 75.7149 88.1671 75.6141C88.5141 75.8579 88.8399 76.1368 89.1399 76.4392C88.8235 76.9784 88.4977 77.5058 88.3125 78.106C88.3008 78.1458 88.3547 78.1763 88.3805 78.1458C88.7157 77.766 89.2665 77.2597 89.3837 76.7018C89.7236 77.0792 90.0237 77.4941 90.2816 77.9301L90.2863 77.9325Z" fill="white"/>
<path d="M139.324 82.602C139.324 82.602 139.315 82.5997 139.31 82.595C139.333 82.3418 139.221 82.0558 139.148 81.8261C139.043 81.4979 138.869 81.1791 138.59 80.9681C138.558 80.9447 138.511 80.9845 138.522 81.0197C138.63 81.3174 138.762 81.6034 138.858 81.9058C138.909 82.0699 138.926 82.2644 138.961 82.4473C137.627 80.9517 135.238 80.3117 133.342 80.089C132.547 79.9953 130.808 79.5077 129.896 79.9718C129.856 79.5944 129.783 79.2193 129.666 78.8489C128.604 75.4827 124.296 72.5337 121.126 73.9988C119.652 74.0035 118.391 74.8873 117.488 76.1086C117.017 75.8929 116.501 75.7546 116.037 75.5085C115.273 75.1029 114.6 74.545 113.969 73.9566C112.903 72.9604 112.014 71.7672 111.17 70.5763C111.825 70.9397 112.488 71.1741 113.259 71.3194C113.313 71.3288 113.353 71.2538 113.299 71.2257C112.476 70.8436 111.653 70.4122 110.866 69.9575C110.746 69.8895 110.58 69.9739 110.584 70.1192C110.62 71.2538 110.969 72.5337 111.377 73.5886C111.407 73.666 111.513 73.6519 111.52 73.5699C111.618 72.5572 111.142 71.5632 110.997 70.5529C111.749 71.8867 112.636 73.1151 113.702 74.2215C114.516 75.0654 115.892 76.3243 117.19 76.5399C116.59 77.4893 116.192 78.5888 116.063 79.6296C115.784 81.8823 116.37 84.0273 117.664 85.5768C116.785 86.3972 116.013 87.363 115.174 88.214C114.145 89.2548 112.94 90.1526 111.925 91.1981C111.93 91.0575 111.925 90.9168 111.937 90.7762C111.96 90.3964 112.045 90.0073 112.021 89.6298C112.021 89.597 111.972 89.5783 111.956 89.6135C111.644 90.2323 111.665 91.0833 111.653 91.7607C111.653 91.8522 111.735 91.8967 111.817 91.885C112.523 91.7795 113.168 91.7936 113.838 91.5005C113.887 91.4794 113.859 91.4068 113.812 91.4068C113.179 91.4091 112.61 91.4255 112.014 91.5708C113.217 90.884 114.251 89.7377 115.214 88.7649C116.117 87.8553 117.097 86.8567 117.83 85.769C118.869 86.9223 120.317 87.7147 122.118 87.921C123.222 88.0475 124.303 87.853 125.292 87.4287C126.239 89.5619 128.046 90.9895 130.381 91.531C129.931 91.7936 129.553 92.1124 129.239 92.5484C129.211 92.5882 129.265 92.6398 129.305 92.614C129.802 92.2811 130.308 91.9342 130.833 91.6459C130.916 91.6013 130.927 91.5052 130.892 91.4278C130.723 91.0504 130.482 90.6871 130.224 90.3636C130.201 90.3331 130.158 90.3612 130.156 90.3917C130.133 90.7105 130.299 90.9754 130.449 91.2473C129.626 90.6918 128.513 90.516 127.655 90.026C126.565 89.4048 126.07 88.3546 125.491 87.342C128.117 86.1159 130.039 83.2443 129.922 80.375C131.117 80.0562 132.435 80.3586 133.632 80.5579C134.579 80.7149 135.505 80.9517 136.406 81.2869C137.245 81.5987 137.885 82.3277 138.677 82.6723C138.478 82.7638 138.34 82.895 138.175 83.0544C138.147 83.0826 138.168 83.1365 138.208 83.1365C138.445 83.1271 138.649 83.1318 138.872 83.0404C139.04 82.97 139.277 82.9161 139.355 82.7309C139.376 82.6794 139.369 82.6325 139.319 82.602H139.324ZM121.016 86.702C117.854 85.8768 116.625 82.4051 117.031 79.4585C117.284 77.6277 118.105 76.2961 119.349 75.5061C119.298 75.5976 119.415 75.696 119.502 75.6468C120.322 75.1803 121.145 74.8427 121.979 74.6857C122.2 74.6693 122.423 74.6576 122.652 74.6622C122.72 74.6622 122.76 74.6318 122.786 74.5943C123.536 74.5685 124.3 74.6998 125.086 75.0561C126.888 75.8719 128.299 77.5901 128.885 79.4561C130.285 83.9194 124.996 87.7428 121.011 86.7043L121.016 86.702Z" fill="white"/>
<path d="M134.678 33.9486C134.678 33.9486 134.678 33.9462 134.678 33.9439C134.678 33.829 134.57 33.7563 134.465 33.7798C133.989 33.89 133.475 34.0025 133.023 34.1877C132.974 34.2064 132.955 34.2955 133.023 34.3072C133.311 34.3541 133.609 34.3119 133.904 34.2486C132.742 34.9894 131.638 35.9036 130.751 36.9374C129.858 37.9782 128.918 39.1691 128.534 40.5123C126.755 38.1869 123.595 36.6491 121.126 37.7907C119.054 37.7977 117.399 39.5324 116.581 41.5133C115.978 41.2273 115.256 41.1077 114.645 40.885C113.719 40.5475 112.837 40.0997 111.993 39.591C110.392 38.6252 109.164 37.3359 107.917 35.9833C108.772 36.1638 109.553 36.6186 110.467 36.5881C110.533 36.5881 110.545 36.4943 110.481 36.4756C109.438 36.1638 108.543 35.5614 107.422 35.5262C107.237 35.5192 107.19 35.7325 107.286 35.8544C107.872 36.5928 107.9 37.568 108.4 38.3275C108.418 38.3556 108.47 38.358 108.477 38.3181C108.571 37.772 108.386 37.0968 108.109 36.5061C109.075 37.8821 110.397 39.0284 111.789 39.9356C112.561 40.4373 113.393 40.8405 114.241 41.1944C114.895 41.4687 115.685 41.8297 116.433 41.886C116.25 42.397 116.124 42.9174 116.06 43.4238C116.023 43.7308 116.007 44.0356 115.999 44.3356C115.442 44.3028 114.863 44.3005 114.333 44.4294C114.274 44.4435 114.267 44.5232 114.316 44.5537C114.827 44.8654 115.437 44.7834 116.002 44.6334C116.049 48.2129 118.299 51.2744 122.116 51.7128C126.79 52.2496 131.061 47.076 129.661 42.6408C129.462 42.0102 129.15 41.3937 128.752 40.8194C129.42 39.3003 130.313 37.9477 131.483 36.7428C132.085 36.1193 132.772 35.5801 133.478 35.0785C133.724 34.9027 133.979 34.769 134.202 34.6026C134.212 34.83 134.249 35.0574 134.298 35.2777C134.31 35.3316 134.39 35.3269 134.401 35.2777C134.509 34.8698 134.701 34.4854 134.655 34.0611C134.659 34.0494 134.666 34.04 134.671 34.0283C134.683 34.0001 134.68 33.9744 134.671 33.9509L134.678 33.9486ZM128.89 43.2409C130.29 47.7043 125.001 51.5276 121.016 50.4891C117.854 49.664 116.625 46.1922 117.031 43.2456C117.284 41.4148 118.105 40.0833 119.349 39.2933C119.298 39.3847 119.415 39.4832 119.502 39.434C120.322 38.9675 121.145 38.6299 121.98 38.4728C122.2 38.4564 122.423 38.4471 122.652 38.4494C122.72 38.4494 122.76 38.4189 122.786 38.3814C123.536 38.3556 124.3 38.4869 125.086 38.8432C126.888 39.659 128.299 41.3773 128.886 43.2432L128.89 43.2409Z" fill="white"/>
<path d="M86.472 81.9313C85.7594 80.6912 85.3445 79.3198 84.8311 77.9907C84.7514 77.7844 84.4209 77.6695 84.3037 77.9227C83.6965 79.2425 83.2793 80.6349 82.5408 81.8937C82.4705 82.0133 82.5901 82.2102 82.7378 82.1493C83.2465 81.936 83.5277 81.2889 83.7481 80.7803C84.013 80.8904 84.3389 80.86 84.6226 80.8717C84.8804 80.8811 85.0984 80.8951 85.3164 80.8764C85.511 81.3358 85.7219 81.7883 85.9797 82.2219C86.1673 82.5384 86.6572 82.2548 86.472 81.9336V81.9313ZM84.7866 80.3607C84.5217 80.3513 84.1983 80.3138 83.9193 80.3747C84.1373 79.8684 84.3319 79.3503 84.5358 78.8369C84.7257 79.3527 84.9109 79.8731 85.1125 80.3841C85.0117 80.3724 84.9062 80.3654 84.7843 80.3607H84.7866Z" fill="white"/>
<path d="M82.5152 77.7027C82.5058 77.6722 82.4636 77.6558 82.4402 77.6839C82.337 77.8035 82.2291 77.8832 82.1658 78.0355C82.1002 78.1903 82.0651 78.3544 82.0206 78.5138C82.0065 78.5607 82.0651 78.5911 82.1002 78.5606C82.2385 78.4341 82.3839 78.3286 82.4941 78.1738C82.5996 78.0238 82.5667 77.8597 82.5152 77.705V77.7027Z" fill="white"/>
<path d="M123.43 81.2188C123.784 80.9516 123.981 80.5414 123.866 79.9717C123.67 78.9825 122.549 78.6332 121.71 78.9872C121.569 79.0481 121.508 79.1489 121.532 79.3037C121.705 80.4711 121.45 81.6478 121.553 82.8012C121.543 82.8012 121.534 82.8012 121.527 82.8012C121.44 82.7988 121.407 82.9231 121.482 82.9629C121.511 82.9793 121.543 82.9934 121.574 83.0074C121.576 83.0309 121.579 83.0567 121.581 83.0801C121.581 83.0801 121.586 83.0778 121.588 83.0754C121.623 83.1926 121.782 83.2325 121.855 83.1223C122.821 83.4458 124.288 83.3356 124.56 82.2245C124.713 81.6009 124.084 81.3337 123.433 81.2188H123.43ZM122.336 81.1298C122.254 81.1392 122.195 81.179 122.158 81.2329C122.174 80.614 122.129 79.9928 122.057 79.4185C123.337 79.1067 123.977 80.961 122.336 81.1298ZM124.04 82.2784C123.784 82.8457 122.687 82.8457 121.947 82.8176C122.057 82.4003 122.12 81.9573 122.146 81.5025C122.181 81.5588 122.242 81.6009 122.336 81.6009C122.69 81.6009 124.335 81.622 124.04 82.2784Z" fill="white"/>
<path d="M113.562 80.9728C110.282 80.722 106.928 80.8673 103.643 80.9259C100.312 80.9845 96.9601 81.0525 93.636 81.2635C93.6806 81.2072 93.7181 81.158 93.7392 81.1345C93.9736 80.8696 94.2971 80.6165 94.405 80.2672C94.4237 80.2062 94.3557 80.1711 94.3064 80.1922C94.0345 80.3117 92.7804 81.1978 93.043 81.587C92.9328 81.873 93.2071 82.2762 93.3993 82.5293C93.5681 82.7544 93.9993 83.3897 94.3556 83.181C94.7377 82.9583 94.1448 82.5457 93.9947 82.3887C93.84 82.2269 93.6969 82.0183 93.5399 81.8378C96.7772 81.5729 99.9981 81.3619 103.247 81.2729C106.674 81.1791 110.146 81.308 113.564 81.0454C113.611 81.0408 113.611 80.9751 113.564 80.9728H113.562Z" fill="white"/>
<path d="M94.8128 63.9466C94.6464 63.2082 93.847 62.7276 93.1696 63.1449C92.764 63.3934 92.3889 64.4717 92.8695 64.7718C93.0054 65.0554 93.2914 65.2922 93.6056 65.3578C94.4284 65.5336 94.9793 64.6757 94.8152 63.949L94.8128 63.9466ZM93.7157 64.9851C93.3054 64.9851 93.1226 64.6639 93.071 64.3217C93.0546 64.0615 93.0875 63.8036 93.268 63.5809C93.6337 63.1308 94.2033 63.513 94.3744 63.9255C94.5783 64.4131 94.2712 64.9851 93.7157 64.9828V64.9851Z" fill="white"/>
<path d="M69.7744 68.2343C69.1626 68.3351 68.764 69.0571 68.6867 69.6173C68.6421 69.9432 68.689 70.255 68.8953 70.5175C69.0524 70.7191 69.2493 70.773 69.4556 70.7519C69.601 70.8715 69.7885 70.9348 70.0112 70.9043C70.473 70.8433 70.7988 70.419 70.9324 70.0041C71.1528 69.3149 70.6371 68.0936 69.7744 68.2366V68.2343ZM70.0979 70.4073C69.9432 70.5128 69.7908 70.5339 69.6478 70.4964C69.3618 70.344 69.1509 70.1096 69.1673 69.7603C69.1837 69.3947 69.404 68.968 69.7205 68.7758C70.1331 68.5249 70.4566 69.2141 70.4988 69.5423C70.541 69.8799 70.3745 70.2151 70.0979 70.405V70.4073Z" fill="white"/>
<path d="M69.1534 91.4349C68.7619 91.0106 67.9953 91.1372 67.5733 91.4349C67.0389 91.8123 66.9054 92.7312 67.5688 93.0501C67.5875 93.0594 67.6086 93.0594 67.6297 93.0548C67.911 93.2751 68.2954 93.329 68.6329 93.2141C69.2916 92.9891 69.6457 91.9694 69.1511 91.4349H69.1534ZM68.6776 92.6844C68.4924 92.8836 68.1712 92.9 67.9368 92.7922C67.7398 92.7008 67.6625 92.5507 67.5851 92.3937C67.564 92.2061 67.5851 92.0256 67.7469 91.8662C67.9719 91.6388 68.4032 91.5357 68.6986 91.6646C69.1088 91.8451 68.9096 92.4382 68.6798 92.6844H68.6776Z" fill="white"/>
<path d="M125.791 63.075C126.616 59.6947 127.77 55.5759 126.682 52.1417C126.668 52.0948 126.604 52.1159 126.612 52.1605C127.212 55.7447 126.283 59.125 125.489 62.5968C124.804 65.5973 123.62 68.5041 122.265 71.2539C122.27 70.7053 122.27 70.1497 122.127 69.6387C122.115 69.5942 122.052 69.5942 122.038 69.6387C121.806 70.4381 121.853 71.364 121.888 72.1868C121.893 72.304 122.01 72.4189 122.134 72.3744C122.955 72.0813 123.719 71.7766 124.49 71.3664C124.539 71.3406 124.504 71.2656 124.453 71.2796C123.827 71.4461 123.217 71.5984 122.61 71.7953C123.238 71.1249 123.473 69.8145 123.78 69.055C124.572 67.1023 125.289 65.1285 125.789 63.0773L125.791 63.075Z" fill="white"/>
<path d="M109.668 92.098C109.623 91.6291 109.438 90.9658 108.873 90.9071C108.465 90.865 108.214 91.1767 108.062 91.601C107.975 91.4135 107.853 91.2564 107.682 91.1627C107.328 90.9681 106.967 91.3361 106.775 91.5846C106.393 92.0792 106.269 92.8809 106.499 93.4576C106.522 93.5162 106.611 93.5279 106.63 93.4576C106.735 93.045 106.773 92.6254 106.906 92.2199C107.012 91.9058 107.432 91.2447 107.64 91.805C107.811 92.2668 107.818 92.7919 107.849 93.2842C107.849 93.3404 107.853 93.392 107.858 93.4365C107.884 93.7272 108.334 93.7319 108.313 93.4365C108.285 93.113 108.383 91.1439 108.915 91.3854C109.305 91.5612 109.248 92.3793 109.244 92.7215C109.239 93.0146 109.14 93.4412 109.358 93.685C109.384 93.7131 109.424 93.7061 109.45 93.685C109.83 93.3873 109.708 92.5059 109.668 92.098Z" fill="white"/>
<path d="M110.252 88.7743C109.952 88.9782 109.708 89.2478 109.654 89.6158C109.647 89.6604 109.692 89.712 109.738 89.6791C109.863 89.5924 109.978 89.4916 110.097 89.3978C110.071 89.7026 110.057 90.012 110.109 90.305C110.118 90.3566 110.198 90.366 110.219 90.3191C110.423 89.8995 110.629 89.4471 110.599 88.9688C110.589 88.8071 110.407 88.6665 110.254 88.7696L110.252 88.7743Z" fill="white"/>
<path d="M134.762 90.7194C134.176 90.6561 133.776 90.9773 133.532 91.4297C133.431 91.132 133.262 90.8975 132.979 90.8366C131.938 90.6139 131.724 92.658 131.914 93.2511C131.933 93.305 132.02 93.3144 132.034 93.2511C132.109 92.8878 132.158 92.5244 132.242 92.1634C132.292 91.9524 132.749 90.8249 133.07 91.3898C133.211 91.6383 133.255 91.9665 133.262 92.2924C133.227 92.5315 133.22 92.7706 133.241 92.9815C133.267 93.2417 133.635 93.2488 133.649 92.9815C133.656 92.8338 133.665 92.6323 133.663 92.4096C133.738 91.8235 134.005 91.1906 134.608 91.1648C135.576 91.1273 135.135 92.5924 135.463 93.0683C135.489 93.1058 135.538 93.1128 135.574 93.0823C136.263 92.4869 135.646 90.8178 134.762 90.7217V90.7194Z" fill="white"/>
<path d="M136.603 89.9882C136.415 89.9132 136.216 89.864 136.012 89.8288C136.061 89.6202 136.108 89.4069 136.068 89.1959C136.017 88.931 135.644 88.8818 135.576 89.1607C135.569 89.1865 135.583 89.217 135.611 89.224C135.646 89.2311 135.745 89.2451 135.735 89.2311C135.756 89.2639 135.735 89.3717 135.733 89.4069C135.719 89.5639 135.677 89.7468 135.609 89.8874C135.552 90.0047 135.599 90.1312 135.726 90.1758C136.019 90.2742 136.359 90.2789 136.614 90.082C136.649 90.0539 136.645 90.007 136.603 89.9906V89.9882Z" fill="white"/>
<path d="M123.852 45.8548C123.609 45.8196 123.475 45.8853 123.252 45.9978C122.966 46.1455 122.657 46.0986 122.378 45.965C121.764 45.6649 121.567 44.889 121.733 44.2748C121.85 43.8435 122.31 43.5059 122.664 43.2762C123.084 43.0019 123.43 42.9035 123.66 43.4051C123.681 43.4473 123.74 43.4286 123.754 43.3934C123.963 42.8144 123.454 42.5308 122.941 42.6808C122.345 42.8543 121.647 43.4098 121.391 43.9818C121.039 44.7741 121.269 45.7985 121.921 46.3682C122.444 46.823 123.862 46.912 123.972 46.0166C123.981 45.9509 123.916 45.8665 123.85 45.8571L123.852 45.8548Z" fill="white"/>
<path d="M137.732 30.444C137.027 30.3291 136.216 31.0371 136.598 31.67C136.303 32.2279 136.542 32.9898 137.039 33.3578C137.791 33.9134 138.574 33.0578 138.719 32.3686C138.879 31.6161 138.595 30.5846 137.73 30.444H137.732ZM138.185 32.3217C138.089 32.7741 137.669 33.1844 137.198 32.9148C136.867 32.7272 136.731 32.2514 136.736 31.8435C136.741 31.8482 136.743 31.8529 136.748 31.8575C136.788 31.895 136.856 31.8693 136.856 31.813C136.856 31.3278 137.273 30.7722 137.808 31.0113C138.255 31.2105 138.269 31.9232 138.185 32.3217Z" fill="white"/>
<path d="M102.75 31.9534C101.632 32.3543 101.468 34.0093 102.235 34.7899C102.246 34.8016 102.26 34.804 102.277 34.8016C102.459 35.1486 102.734 35.4392 103.114 35.5916C104.19 36.0183 104.75 34.7641 104.834 33.8991C104.942 32.802 103.896 31.5432 102.75 31.9534ZM104.316 34.0773C104.201 34.7102 103.803 35.4838 103.074 35.0735C102.671 34.8485 102.399 34.4031 102.241 33.946C102.206 33.4045 102.258 32.8513 102.699 32.5254C103.65 31.8222 104.464 33.2662 104.318 34.0773H104.316Z" fill="white"/>
<path d="M98.8894 42.1648C98.015 41.7288 97.096 41.4662 96.1771 41.1427C96.1325 41.1263 96.1091 41.192 96.1466 41.2154C96.9835 41.7429 97.9142 41.9796 98.8612 42.2304C98.8987 42.2398 98.9245 42.1859 98.887 42.1671L98.8894 42.1648Z" fill="white"/>
<path d="M104.309 43.2292C103.629 42.9127 102.797 42.765 102.049 42.826C102.009 42.8283 101.981 42.8916 102.026 42.9127C102.71 43.2245 103.538 43.2807 104.281 43.3347C104.335 43.3393 104.358 43.255 104.309 43.2315V43.2292Z" fill="white"/>
<path d="M110.242 43.9791C109.75 43.89 109.157 43.7611 108.662 43.9017C108.618 43.9134 108.611 43.9744 108.651 43.9978C109.11 44.2721 109.75 44.1502 110.242 44.0611C110.282 44.0541 110.282 43.9884 110.242 43.9814V43.9791Z" fill="white"/>
<path d="M93.2564 38.9791C92.6961 38.5618 91.8593 38.8947 91.4022 39.312C91.1537 39.5394 90.9872 39.8535 90.9849 40.191C90.9849 40.4723 91.1302 40.8169 91.3857 40.9529C91.442 41.0748 91.5194 41.192 91.6319 41.2928C91.9812 41.6116 92.4852 41.6257 92.879 41.3889C93.5447 40.9881 93.9807 39.5183 93.2564 38.9767V38.9791ZM92.8861 40.7911C92.6845 41.117 92.3023 41.2037 91.9554 41.0865C91.8358 41.0467 91.7421 40.9763 91.6671 40.8896C91.6671 40.8873 91.6671 40.8849 91.6671 40.8826C91.6413 40.7161 91.5358 40.5872 91.4678 40.4442C91.4467 40.3106 91.4443 40.1699 91.4678 40.041C91.4725 40.0199 91.4584 40.0035 91.4443 39.9988C91.4889 39.8816 91.5616 39.7714 91.6507 39.6823C91.9367 39.3846 92.4477 39.1643 92.8579 39.2721C93.4698 39.4339 93.0853 40.4676 92.8861 40.7911Z" fill="white"/>
<path d="M108.271 67.1399C107.889 67.1141 107.488 67.2571 107.117 67.1352C106.803 67.032 106.632 66.6828 106.548 66.3897C106.341 65.6654 106.644 64.8332 107.46 64.7394C107.49 64.7347 107.5 64.6925 107.467 64.6832C106.409 64.3855 105.99 65.5997 106.119 66.4343C106.273 67.4259 107.661 68.3049 108.336 67.25C108.369 67.1985 108.325 67.1422 108.273 67.1375L108.271 67.1399Z" fill="white"/>
<path d="M110.643 65.8783C110.359 65.4024 109.804 64.9523 109.232 64.943C108.953 64.9383 108.702 65.0953 108.573 65.3415C108.498 65.4845 108.451 65.6603 108.463 65.822C108.479 66.0283 108.559 66.176 108.648 66.3401C108.653 66.6026 108.719 66.8582 108.911 67.0645C109.251 67.4302 109.771 67.4325 110.219 67.2825C110.868 67.0645 110.962 66.4175 110.641 65.8806L110.643 65.8783ZM110.195 66.755C109.956 66.9144 109.539 66.9965 109.279 66.8746C109.056 66.7714 108.925 66.5089 108.85 66.237C108.88 66.1502 108.911 66.0635 108.925 65.9721C108.941 65.8642 108.979 65.7376 109.014 65.6298C109.056 65.4938 109.133 65.4657 109.232 65.4634C109.541 65.4563 109.909 65.7611 110.127 66.026C110.334 66.2745 110.449 66.5886 110.195 66.7574V66.755Z" fill="white"/>
<path d="M112.49 66.0213C112.366 65.9486 112.249 65.9017 112.124 65.8642C112.265 65.6016 112.34 65.3157 112.293 65.0133C112.242 64.6804 111.864 64.4389 111.55 64.589C111.513 64.6077 111.506 64.6663 111.536 64.6944C111.71 64.8421 111.906 64.9125 111.921 65.1703C111.935 65.4165 111.796 65.672 111.635 65.8478C111.517 65.972 111.576 66.1525 111.728 66.2065C112.01 66.3073 112.235 66.258 112.488 66.1127C112.523 66.0939 112.521 66.0424 112.488 66.0213H112.49Z" fill="white"/>
<path d="M63.4126 66.2748C61.0918 61.9685 58.8086 57.5849 57.0224 53.0325C56.8536 52.3879 56.7082 51.7362 56.6144 51.0611C56.6144 50.4492 56.6145 49.8397 56.6121 49.2303C56.652 49.1646 56.6801 49.0873 56.6801 48.9935C56.6801 46.8298 56.6872 44.6638 56.6801 42.5001C57.1513 39.9309 56.148 36.9819 57.2216 34.5369C57.6295 33.6086 58.4547 32.9429 58.5438 32.0568C58.7055 31.6254 58.6281 31.1449 58.1452 30.6362C56.3871 28.7843 52.5567 29.0492 50.6861 30.5799C50.1704 31.0019 49.9172 31.5223 49.9875 32.0521C49.9547 32.2373 49.9546 32.4225 50.0203 32.5889C50.4727 33.768 51.2932 34.0282 51.4409 35.5027C51.5815 36.9069 51.5722 38.3275 51.5699 39.7363C51.5699 40.0762 51.5533 40.4255 51.5346 40.7771C51.5346 40.7771 51.5346 40.7795 51.5346 40.7818V40.7982C51.5018 41.4218 51.4736 42.0571 51.5252 42.6712C51.5041 45.8687 51.5112 49.0685 51.5276 52.266C51.1807 53.6538 50.7236 54.9008 49.9734 56.2089C49.0123 57.8873 47.9832 59.5283 46.9565 61.1692C45.196 63.9846 42.8377 66.6991 41.4007 69.6809C40.5451 71.4555 42.7182 73.0237 43.9043 73.9075C45.135 74.8264 46.7291 75.4851 48.3442 75.7195C50.5243 76.3525 52.9037 76.533 55.1705 76.4978C56.4574 76.5635 57.7444 76.5494 59.029 76.4275C60.7754 76.2634 62.5382 75.8438 64.0315 74.8944C64.355 74.6904 64.6433 74.4443 64.9011 74.1724C65.6231 73.8559 66.2304 73.3707 66.2702 72.4846C66.3734 70.2834 64.4089 68.1197 63.415 66.2795L63.4126 66.2748ZM51.0517 32.2021C50.4609 31.6958 51.68 30.9949 51.9425 30.8542C53.2389 30.1533 56.9145 29.797 57.6248 31.5481C58.0256 32.5397 55.3276 33.0624 54.7884 33.1539C54.3289 33.2312 53.7734 33.2828 53.2061 33.2734C52.9131 33.1164 52.6176 32.964 52.2754 32.8514C51.8347 32.7061 51.4057 32.5069 51.0517 32.2045V32.2021ZM52.3809 54.2586C52.5263 53.9608 52.5262 53.5576 52.4653 53.1263C52.4864 49.6452 52.4934 46.1617 52.4676 42.6806C52.5051 42.1954 52.4935 41.7007 52.5075 41.1686C52.5474 39.5089 52.5684 37.8516 52.5121 36.1919C52.484 35.3949 52.4372 34.6729 52.1817 33.9485C53.335 34.2884 54.7696 34.129 55.8151 33.8923C56.0988 33.829 56.4433 33.7118 56.7902 33.5547C56.4667 34.054 56.1996 34.5721 56.1316 35.1816C55.9417 36.8858 55.6393 39.0026 55.7284 40.9318C55.726 41.3046 55.7284 41.675 55.7237 42.0477C55.6041 43.7027 55.4752 45.36 55.3181 47.0103C55.0204 50.1164 55.161 52.7536 56.38 55.6416C56.6543 56.2933 56.9544 56.9403 57.2662 57.5826C56.4035 57.5756 55.7214 58.096 55.0486 58.743C53.4147 60.3136 51.9988 58.4288 50.2618 58.4898C50.1704 58.4921 50.0812 58.5179 49.9921 58.5343C50.0859 58.3773 50.1844 58.2249 50.2759 58.0679C51.0072 56.8161 51.7339 55.5595 52.3785 54.2609L52.3809 54.2586ZM56.6215 74.8967C54.7766 75.0186 52.92 75.0116 51.0892 74.7983C50.6649 74.7116 50.2126 74.6318 49.7929 74.6084C49.2819 74.5193 48.7732 74.4185 48.2692 74.2896C46.4079 73.8208 43.4612 72.6323 42.6267 70.6092C42.5868 70.2365 42.6806 69.8333 42.9783 69.3879C43.8574 68.0681 44.7834 66.7741 45.6578 65.4497C46.7197 63.8486 47.7418 62.2241 48.7474 60.5878C49.5562 59.9151 50.3695 59.2915 51.5393 59.8119C52.1816 60.0979 52.9622 60.5597 53.6842 60.5011C54.2257 60.4589 54.7391 60.3745 55.1493 59.976C55.447 59.69 55.7214 59.3853 56.0097 59.0899C56.727 58.3562 57.4208 58.5554 57.9811 58.9985C58.7969 60.5855 59.6596 62.1538 60.4684 63.7197C61.1599 65.0605 61.7905 66.4436 62.5453 67.7493C63.3048 69.0621 63.9729 70.131 63.9916 71.4953C63.9025 74.0997 58.4242 74.7725 56.6215 74.892V74.8967Z" fill="white"/>
<path d="M52.3107 64.8048C52.2638 64.7228 52.2123 64.6337 52.149 64.561C52.1326 64.5024 52.1232 64.4391 52.0997 64.3805C51.9333 63.9492 51.4855 63.8343 51.1292 64.125C50.7588 64.4274 50.7495 65.0369 51.08 65.3721C51.4199 65.719 51.863 65.7097 52.231 65.4166C52.4068 65.276 52.4115 64.9853 52.3107 64.8048Z" fill="white"/>
<path d="M54.7344 64.1392C54.6055 64.0313 54.5023 63.9422 54.3242 63.9657C54.1812 63.9844 54.0943 64.0454 54.0404 64.1814C53.9748 64.3501 54.0311 64.472 54.1061 64.6244C54.1811 64.7815 54.3968 64.8565 54.5562 64.8073C54.6664 64.7745 54.739 64.7276 54.7953 64.6244C54.875 64.4744 54.8703 64.2587 54.732 64.1392H54.7344Z" fill="white"/>
<path d="M56.0902 62.4186C55.7874 62.2402 55.4118 62.5994 55.6019 62.9069C55.6136 62.9233 55.6231 62.9397 55.6348 62.9562C55.6817 63.0313 55.7709 63.0947 55.8624 63.0876L55.9094 63.0829C56.2474 63.0524 56.4141 62.6088 56.0902 62.4186Z" fill="white"/>
<path d="M57.9764 68.8651C57.7138 68.4384 57.184 68.5604 56.9707 68.8745C56.9684 68.8698 56.9661 68.8674 56.9637 68.8651C56.7973 69.1323 56.7668 69.4136 56.8723 69.709C57.0856 70.2974 57.8522 70.2974 58.0656 69.709C58.1734 69.4113 58.1405 69.13 57.9764 68.8651Z" fill="white"/>
<path d="M56.0754 71.1621C55.3722 71.1621 55.3722 72.2521 56.0754 72.2521C56.7787 72.2521 56.7787 71.1621 56.0754 71.1621Z" fill="white"/>
<path d="M55.6862 69.4723C55.6838 69.4559 55.6791 69.4395 55.6768 69.4231C55.576 68.891 54.6853 69.1957 54.9643 69.7232C54.9713 69.7372 54.9806 69.7536 54.9876 69.7677C55.2033 70.1709 55.7635 69.8779 55.6862 69.4747V69.4723Z" fill="white"/>
<path d="M47.9292 69.2683C47.4228 69.13 47.0852 69.5871 47.1532 70.0442C47.1696 70.1614 47.2142 70.2552 47.2681 70.3607C47.4182 70.656 47.84 70.6818 48.0627 70.4638C48.1096 70.4146 48.1589 70.3701 48.2105 70.3255C48.5621 69.9973 48.377 69.3925 47.9316 69.2706L47.9292 69.2683Z" fill="white"/>
<path d="M50.3228 71.3103C50.1798 70.9165 49.7368 70.8696 49.5023 71.104C49.5023 71.0993 49.5024 71.0946 49.5 71.0923C49.3969 71.2024 49.3289 71.3267 49.2961 71.4744C49.2914 71.4955 49.296 71.5119 49.2937 71.533C49.2937 71.533 49.2937 71.533 49.2937 71.5353C49.2304 71.6103 49.2492 71.6994 49.3148 71.7463C49.4321 72.1284 49.9735 72.2808 50.2337 71.8705C50.3392 71.7065 50.3932 71.5002 50.3252 71.3103H50.3228Z" fill="white"/>
<path d="M49.9853 68.5978C49.9689 68.5603 49.9525 68.5251 49.9361 68.49C49.7392 68.068 49.0031 68.1618 48.9234 68.6212C48.9164 68.6611 48.9093 68.7009 48.9023 68.7384C48.8366 69.1135 49.0617 69.4909 49.4742 69.4909C49.9548 69.4909 50.1705 68.994 49.9853 68.5978Z" fill="white"/>
<path d="M49.3922 25.8232C49.289 25.8537 49.1929 25.9568 49.2046 26.0717C49.2351 26.428 49.4437 26.8148 49.6406 27.1078C49.7367 27.2508 50.1985 27.6212 50.3861 27.4032C50.8572 26.8499 50.1165 25.6052 49.3945 25.8232H49.3922Z" fill="white"/>
<path d="M53.4124 25.1813C53.2437 25.043 52.9952 25.0875 52.9248 25.3102C52.7982 25.7157 52.8451 26.2643 53.2483 26.501C53.2811 26.5198 53.321 26.5198 53.3538 26.501C53.8133 26.2291 53.8063 25.5048 53.4124 25.1813Z" fill="white"/>
<path d="M56.7764 24.2671C56.7318 24.1124 56.5161 24.035 56.3989 24.1686C55.8925 24.7406 55.2854 25.8564 55.6956 26.5949C55.78 26.7496 55.9864 26.759 56.1083 26.6488C56.4411 26.3487 56.542 25.9713 56.6592 25.5446C56.7811 25.1133 56.9029 24.7078 56.774 24.2694L56.7764 24.2671Z" fill="white"/>
<path d="M60.0955 25.4271C59.8259 25.5092 59.6477 25.8866 59.479 26.0953C59.2328 26.4023 59.1038 26.7375 59.139 27.129C59.1437 27.1829 59.1953 27.2415 59.2562 27.2181C59.7438 27.0235 60.0908 26.8595 60.3627 26.3765C60.4893 26.1515 60.6252 25.2631 60.0955 25.4248V25.4271Z" fill="white"/>
<path d="M54.1202 54.901C54.1038 54.8939 54.0897 54.8845 54.0733 54.8775C53.8647 54.772 53.6162 54.8212 53.4896 55.0299C53.4826 55.0439 53.4732 55.058 53.4662 55.0721C53.2482 55.4331 53.6044 55.8832 54.0053 55.773C54.3874 55.6675 54.4976 55.0908 54.1202 54.901Z" fill="white"/>
<path d="M53.3491 52.9154C53.3491 52.9436 53.3491 52.9717 53.3467 52.9999C53.3397 53.239 53.5718 53.3726 53.7828 53.3327C53.8461 53.321 53.8953 53.3163 53.9328 53.2601C53.9328 53.2577 53.9328 53.253 53.9328 53.2507C54.6173 52.7678 53.3726 52.1301 53.3491 52.9154Z" fill="white"/>
<path d="M54.2004 47.8964C54.0948 47.8353 53.9586 47.8518 53.8741 47.9386C53.7403 48.0701 53.8437 48.1663 53.8367 48.3095C53.832 48.3823 53.9117 48.4433 53.9821 48.4222C54.1042 48.3823 54.2216 48.394 54.2967 48.2672C54.3718 48.1405 54.3272 47.9715 54.2004 47.8987V47.8964Z" fill="white"/>
<path d="M41.3561 37.4926C41.0561 37.0964 40.7842 36.3721 40.3599 36.0275C40.3599 36.0205 40.3575 36.0134 40.3552 36.0064C40.2661 35.6547 39.7433 35.5751 39.5698 35.9032C38.9252 37.1222 38.2572 38.3248 37.9056 39.6633C37.8681 39.8063 38.0532 39.9259 38.161 39.811C38.8479 39.0702 39.3589 38.2216 39.8161 37.3355C40.0645 38.721 39.9731 40.2447 40.02 41.6043C40.0833 43.482 40.1653 45.3573 40.2919 47.2303C40.5802 51.4944 40.6857 55.7819 41.117 60.0343C41.1264 60.1163 41.239 60.1187 41.246 60.0343C41.5344 55.7796 41.1874 51.4827 40.9835 47.2303C40.8428 44.279 41.0913 41.0487 40.7162 38.0388C41.1499 38.6272 41.6211 39.1195 42.2142 39.5813C42.2962 39.6445 42.4087 39.5883 42.3876 39.4805C42.2352 38.6834 41.8367 38.1302 41.3561 37.4903V37.4926Z" fill="white"/>
<path d="M30.2987 50.3109C29.6002 50.3507 28.4257 51.0235 28.1046 50.0062C27.7272 48.8036 28.7774 46.4594 30.2144 46.7383C30.2636 46.7477 30.3151 46.6985 30.2846 46.6493C29.9752 46.1804 29.3283 46.3352 28.9298 46.5766C28.2757 46.9728 27.8538 47.7018 27.5678 48.3887C26.9091 49.9663 27.4998 51.6424 29.4174 51.4994C29.9471 51.4595 30.6409 51.333 30.9011 50.8172C31.1051 50.4164 30.5964 50.2945 30.2987 50.3109Z" fill="white"/>
<path d="M35.8871 47.9901C35.4652 46.2836 33.3906 45.6295 32.2349 47.0407C31.4425 48.0089 31.3722 49.8889 32.2536 50.7C32.3099 50.8571 32.3967 51.0048 32.5303 51.1407C32.9312 51.5416 33.5618 51.5369 34.0728 51.4009C35.5613 51.0071 36.2318 49.3943 35.8848 47.9878L35.8871 47.9901ZM33.4914 50.6344C33.1093 50.2898 32.685 49.896 32.5397 49.4201C32.3568 48.8247 32.5866 48.0441 32.9687 47.5705C33.8548 46.4852 34.9893 47.6409 35.0854 48.6629C35.1792 49.6686 34.2838 50.5617 33.4914 50.6344Z" fill="white"/>
<path d="M38.1751 52.6408C38.0039 52.5541 37.7625 52.3947 37.5656 52.3947C37.4202 52.3947 37.2608 52.4064 37.1037 52.3994C37.4975 51.9305 37.9218 51.4429 37.9382 50.8194C37.9476 50.4326 37.5867 50.1021 37.2069 50.1021C37.0124 50.1021 36.2904 50.4139 36.5576 50.7139C36.6959 50.871 37.01 50.7678 37.1929 50.8194C37.2444 50.8334 37.1014 51.1054 37.0545 51.1898C36.806 51.6328 36.4638 52.0055 36.1848 52.4298C36.0863 52.5799 36.1426 52.833 36.3114 52.9104C36.6255 53.0557 36.9302 53.1401 37.2795 53.1448C37.6475 53.1495 37.8633 53.0088 38.1751 52.8354C38.2477 52.7955 38.2501 52.6783 38.1751 52.6408Z" fill="white"/>
<path d="M95.5863 172.825H232.895" stroke="black" stroke-miterlimit="10"/>
<path d="M5.43629 192.455V207H2.36101V192.455H5.43629ZM10.4452 192.455V193.989C10.4452 194.424 10.3599 194.869 10.1895 195.324C10.0238 195.774 9.80123 196.2 9.52187 196.602C9.24252 197 8.93712 197.339 8.60568 197.618L7.27045 196.83C7.50719 196.455 7.71553 196.041 7.89545 195.587C8.08011 195.132 8.17244 194.604 8.17244 194.003V192.455H10.4452ZM12.0308 207V196.091H14.9143V198.016H15.0421C15.2694 197.376 15.6482 196.872 16.1785 196.503C16.7088 196.134 17.3433 195.949 18.0819 195.949C18.83 195.949 19.4668 196.136 19.9924 196.51C20.518 196.879 20.8683 197.381 21.0435 198.016H21.1572C21.3797 197.391 21.7822 196.891 22.3646 196.517C22.9517 196.138 23.6453 195.949 24.4455 195.949C25.4635 195.949 26.2897 196.273 26.9242 196.922C27.5634 197.566 27.883 198.48 27.883 199.663V207H24.8646V200.26C24.8646 199.654 24.7036 199.199 24.3816 198.896C24.0596 198.593 23.6572 198.442 23.1742 198.442C22.625 198.442 22.1965 198.617 21.8887 198.967C21.5809 199.313 21.4271 199.77 21.4271 200.338V207H18.4938V200.196C18.4938 199.661 18.3399 199.235 18.0322 198.918C17.7291 198.6 17.329 198.442 16.8319 198.442C16.4957 198.442 16.1927 198.527 15.9228 198.697C15.6576 198.863 15.4469 199.098 15.2907 199.401C15.1344 199.699 15.0563 200.049 15.0563 200.452V207H12.0308ZM34.9587 207V192.455H38.0339V198.456H44.2768V192.455H47.345V207H44.2768V200.991H38.0339V207H34.9587ZM54.7953 207.213C53.6732 207.213 52.7072 206.986 51.8976 206.531C51.0927 206.072 50.4724 205.423 50.0368 204.585C49.6012 203.742 49.3834 202.746 49.3834 201.595C49.3834 200.473 49.6012 199.488 50.0368 198.641C50.4724 197.793 51.0856 197.133 51.8763 196.659C52.6717 196.186 53.6045 195.949 54.6746 195.949C55.3943 195.949 56.0642 196.065 56.6845 196.297C57.3095 196.524 57.854 196.867 58.318 197.327C58.7868 197.786 59.1514 198.364 59.4118 199.06C59.6722 199.751 59.8024 200.561 59.8024 201.489V202.32H50.5908V200.445H56.9544C56.9544 200.009 56.8597 199.623 56.6703 199.287C56.4809 198.951 56.2181 198.688 55.882 198.499C55.5505 198.304 55.1646 198.207 54.7243 198.207C54.265 198.207 53.8578 198.314 53.5027 198.527C53.1523 198.735 52.8777 199.017 52.6788 199.372C52.48 199.723 52.3782 200.113 52.3734 200.544V202.327C52.3734 202.866 52.4729 203.333 52.6717 203.726C52.8753 204.119 53.1618 204.422 53.5311 204.635C53.9004 204.848 54.3384 204.955 54.845 204.955C55.1812 204.955 55.489 204.907 55.7683 204.812C56.0477 204.718 56.2868 204.576 56.4857 204.386C56.6845 204.197 56.836 203.965 56.9402 203.69L59.7385 203.875C59.5964 204.547 59.3053 205.134 58.8649 205.636C58.4293 206.134 57.8659 206.522 57.1746 206.801C56.488 207.076 55.6949 207.213 54.7953 207.213ZM61.7768 207V196.091H64.7101V197.994H64.8237C65.0226 197.317 65.3564 196.806 65.8251 196.46C66.2939 196.11 66.8337 195.935 67.4445 195.935C67.596 195.935 67.7593 195.944 67.9345 195.963C68.1097 195.982 68.2636 196.008 68.3962 196.041V198.726C68.2541 198.683 68.0576 198.645 67.8067 198.612C67.5557 198.579 67.3261 198.562 67.1178 198.562C66.6727 198.562 66.275 198.66 65.9246 198.854C65.5789 199.043 65.3043 199.308 65.1007 199.649C64.9018 199.99 64.8024 200.383 64.8024 200.828V207H61.7768ZM74.4242 207.213C73.3021 207.213 72.3361 206.986 71.5265 206.531C70.7216 206.072 70.1013 205.423 69.6657 204.585C69.2301 203.742 69.0123 202.746 69.0123 201.595C69.0123 200.473 69.2301 199.488 69.6657 198.641C70.1013 197.793 70.7145 197.133 71.5052 196.659C72.3006 196.186 73.2334 195.949 74.3035 195.949C75.0232 195.949 75.6932 196.065 76.3134 196.297C76.9384 196.524 77.4829 196.867 77.9469 197.327C78.4157 197.786 78.7803 198.364 79.0407 199.06C79.3011 199.751 79.4313 200.561 79.4313 201.489V202.32H70.2197V200.445H76.5833C76.5833 200.009 76.4886 199.623 76.2992 199.287C76.1098 198.951 75.847 198.688 75.5109 198.499C75.1794 198.304 74.7935 198.207 74.3532 198.207C73.8939 198.207 73.4867 198.314 73.1316 198.527C72.7812 198.735 72.5066 199.017 72.3077 199.372C72.1089 199.723 72.0071 200.113 72.0023 200.544V202.327C72.0023 202.866 72.1018 203.333 72.3006 203.726C72.5042 204.119 72.7907 204.422 73.16 204.635C73.5293 204.848 73.9673 204.955 74.4739 204.955C74.8101 204.955 75.1179 204.907 75.3972 204.812C75.6766 204.718 75.9157 204.576 76.1146 204.386C76.3134 204.197 76.4649 203.965 76.5691 203.69L79.3674 203.875C79.2254 204.547 78.9342 205.134 78.4938 205.636C78.0582 206.134 77.4948 206.522 76.8035 206.801C76.1169 207.076 75.3238 207.213 74.4242 207.213ZM91.8372 196.091V198.364H85.2676V196.091H91.8372ZM86.7591 193.477H89.7847V203.648C89.7847 203.927 89.8273 204.145 89.9125 204.301C89.9977 204.453 90.1161 204.559 90.2676 204.621C90.4239 204.682 90.6038 204.713 90.8074 204.713C90.9494 204.713 91.0915 204.701 91.2335 204.678C91.3756 204.649 91.4845 204.628 91.5602 204.614L92.0361 206.865C91.8846 206.912 91.6715 206.967 91.3969 207.028C91.1223 207.095 90.7884 207.135 90.3955 207.149C89.6663 207.178 89.0271 207.08 88.4778 206.858C87.9333 206.635 87.5096 206.29 87.2065 205.821C86.9035 205.352 86.7544 204.76 86.7591 204.045V193.477ZM98.6199 207.213C97.5167 207.213 96.5626 206.979 95.7577 206.51C94.9575 206.036 94.3396 205.378 93.904 204.536C93.4684 203.688 93.2506 202.705 93.2506 201.588C93.2506 200.461 93.4684 199.476 93.904 198.634C94.3396 197.786 94.9575 197.128 95.7577 196.659C96.5626 196.186 97.5167 195.949 98.6199 195.949C99.7231 195.949 100.675 196.186 101.475 196.659C102.28 197.128 102.9 197.786 103.336 198.634C103.771 199.476 103.989 200.461 103.989 201.588C103.989 202.705 103.771 203.688 103.336 204.536C102.9 205.378 102.28 206.036 101.475 206.51C100.675 206.979 99.7231 207.213 98.6199 207.213ZM98.6341 204.869C99.136 204.869 99.555 204.727 99.8912 204.443C100.227 204.154 100.481 203.761 100.651 203.264C100.826 202.767 100.914 202.201 100.914 201.567C100.914 200.932 100.826 200.366 100.651 199.869C100.481 199.372 100.227 198.979 99.8912 198.69C99.555 198.402 99.136 198.257 98.6341 198.257C98.1275 198.257 97.7013 198.402 97.3557 198.69C97.0148 198.979 96.7567 199.372 96.5815 199.869C96.4111 200.366 96.3259 200.932 96.3259 201.567C96.3259 202.201 96.4111 202.767 96.5815 203.264C96.7567 203.761 97.0148 204.154 97.3557 204.443C97.7013 204.727 98.1275 204.869 98.6341 204.869ZM110.088 194.99V192.455H122.034V194.99H117.581V207H114.541V194.99H110.088ZM127.334 207.213C126.212 207.213 125.246 206.986 124.437 206.531C123.632 206.072 123.011 205.423 122.576 204.585C122.14 203.742 121.922 202.746 121.922 201.595C121.922 200.473 122.14 199.488 122.576 198.641C123.011 197.793 123.625 197.133 124.415 196.659C125.211 196.186 126.144 195.949 127.214 195.949C127.933 195.949 128.603 196.065 129.224 196.297C129.849 196.524 130.393 196.867 130.857 197.327C131.326 197.786 131.69 198.364 131.951 199.06C132.211 199.751 132.341 200.561 132.341 201.489V202.32H123.13V200.445H129.493C129.493 200.009 129.399 199.623 129.209 199.287C129.02 198.951 128.757 198.688 128.421 198.499C128.09 198.304 127.704 198.207 127.263 198.207C126.804 198.207 126.397 198.314 126.042 198.527C125.691 198.735 125.417 199.017 125.218 199.372C125.019 199.723 124.917 200.113 124.912 200.544V202.327C124.912 202.866 125.012 203.333 125.211 203.726C125.414 204.119 125.701 204.422 126.07 204.635C126.439 204.848 126.877 204.955 127.384 204.955C127.72 204.955 128.028 204.907 128.307 204.812C128.587 204.718 128.826 204.576 129.025 204.386C129.224 204.197 129.375 203.965 129.479 203.69L132.278 203.875C132.136 204.547 131.844 205.134 131.404 205.636C130.968 206.134 130.405 206.522 129.714 206.801C129.027 207.076 128.234 207.213 127.334 207.213ZM137.427 207.206C136.731 207.206 136.11 207.085 135.566 206.844C135.021 206.598 134.591 206.235 134.273 205.757C133.961 205.274 133.805 204.673 133.805 203.953C133.805 203.347 133.916 202.838 134.138 202.426C134.361 202.014 134.664 201.683 135.047 201.432C135.431 201.181 135.867 200.991 136.354 200.864C136.847 200.736 137.363 200.646 137.903 200.594C138.537 200.527 139.048 200.466 139.437 200.409C139.825 200.348 140.107 200.258 140.282 200.139C140.457 200.021 140.545 199.846 140.545 199.614V199.571C140.545 199.121 140.403 198.773 140.118 198.527C139.839 198.281 139.441 198.158 138.925 198.158C138.381 198.158 137.948 198.278 137.626 198.52C137.304 198.757 137.091 199.055 136.986 199.415L134.188 199.188C134.33 198.525 134.609 197.952 135.026 197.469C135.443 196.981 135.98 196.607 136.638 196.347C137.301 196.081 138.068 195.949 138.939 195.949C139.546 195.949 140.126 196.02 140.68 196.162C141.238 196.304 141.733 196.524 142.164 196.822C142.6 197.121 142.943 197.504 143.194 197.973C143.445 198.437 143.57 198.993 143.57 199.642V207H140.701V205.487H140.616C140.44 205.828 140.206 206.129 139.912 206.389C139.619 206.645 139.266 206.846 138.854 206.993C138.442 207.135 137.966 207.206 137.427 207.206ZM138.293 205.118C138.738 205.118 139.131 205.03 139.472 204.855C139.813 204.675 140.081 204.434 140.275 204.131C140.469 203.828 140.566 203.484 140.566 203.101V201.943C140.471 202.005 140.341 202.062 140.175 202.114C140.014 202.161 139.832 202.206 139.628 202.249C139.425 202.286 139.221 202.322 139.018 202.355C138.814 202.384 138.629 202.41 138.464 202.433C138.109 202.485 137.798 202.568 137.533 202.682C137.268 202.795 137.062 202.949 136.915 203.143C136.769 203.333 136.695 203.57 136.695 203.854C136.695 204.266 136.844 204.58 137.143 204.798C137.446 205.011 137.829 205.118 138.293 205.118ZM150.846 207.213C149.729 207.213 148.768 206.976 147.963 206.503C147.163 206.025 146.547 205.362 146.116 204.514C145.69 203.667 145.477 202.691 145.477 201.588C145.477 200.471 145.693 199.491 146.123 198.648C146.559 197.8 147.177 197.14 147.977 196.666C148.777 196.188 149.729 195.949 150.832 195.949C151.784 195.949 152.617 196.122 153.332 196.467C154.047 196.813 154.613 197.298 155.03 197.923C155.446 198.548 155.676 199.282 155.719 200.125H152.863C152.783 199.58 152.57 199.143 152.224 198.811C151.883 198.475 151.436 198.307 150.882 198.307C150.413 198.307 150.004 198.435 149.653 198.69C149.308 198.941 149.038 199.308 148.844 199.791C148.649 200.274 148.552 200.859 148.552 201.545C148.552 202.241 148.647 202.833 148.837 203.321C149.031 203.809 149.303 204.18 149.653 204.436C150.004 204.692 150.413 204.82 150.882 204.82C151.228 204.82 151.538 204.749 151.812 204.607C152.092 204.464 152.321 204.259 152.501 203.989C152.686 203.714 152.807 203.385 152.863 203.001H155.719C155.671 203.835 155.444 204.569 155.037 205.203C154.634 205.833 154.078 206.325 153.368 206.68C152.658 207.036 151.817 207.213 150.846 207.213ZM160.681 200.693V207H157.656V192.455H160.596V198.016H160.724C160.97 197.372 161.368 196.867 161.917 196.503C162.466 196.134 163.155 195.949 163.984 195.949C164.741 195.949 165.402 196.115 165.965 196.446C166.534 196.773 166.974 197.244 167.286 197.859C167.604 198.47 167.76 199.202 167.755 200.054V207H164.73V200.594C164.734 199.921 164.564 199.398 164.218 199.024C163.877 198.65 163.399 198.463 162.784 198.463C162.372 198.463 162.007 198.551 161.69 198.726C161.377 198.901 161.131 199.157 160.951 199.493C160.776 199.824 160.686 200.224 160.681 200.693ZM179.225 207.213C178.222 207.213 177.355 207.033 176.626 206.673C175.897 206.313 175.336 205.826 174.943 205.21C174.554 204.59 174.36 203.899 174.36 203.136C174.36 202.568 174.474 202.064 174.701 201.624C174.928 201.183 175.246 200.778 175.653 200.409C176.06 200.035 176.534 199.663 177.073 199.294L179.893 197.44C180.258 197.208 180.525 196.964 180.696 196.709C180.866 196.448 180.951 196.167 180.951 195.864C180.951 195.575 180.835 195.307 180.603 195.061C180.371 194.815 180.042 194.694 179.616 194.699C179.332 194.699 179.086 194.763 178.877 194.891C178.669 195.014 178.506 195.177 178.387 195.381C178.274 195.58 178.217 195.802 178.217 196.048C178.217 196.351 178.302 196.659 178.473 196.972C178.643 197.284 178.87 197.616 179.154 197.966C179.438 198.312 179.749 198.686 180.085 199.088L186.981 207H183.828L178.075 200.594C177.696 200.163 177.317 199.713 176.938 199.244C176.564 198.771 176.252 198.269 176.001 197.739C175.75 197.204 175.625 196.624 175.625 195.999C175.625 195.293 175.788 194.659 176.115 194.095C176.446 193.532 176.91 193.087 177.507 192.76C178.103 192.429 178.799 192.263 179.595 192.263C180.371 192.263 181.041 192.421 181.605 192.739C182.173 193.051 182.608 193.468 182.911 193.989C183.219 194.505 183.373 195.073 183.373 195.693C183.373 196.38 183.203 197.002 182.862 197.561C182.526 198.115 182.052 198.612 181.441 199.053L178.473 201.19C178.07 201.484 177.772 201.785 177.578 202.092C177.388 202.395 177.294 202.687 177.294 202.966C177.294 203.312 177.379 203.622 177.549 203.896C177.72 204.171 177.961 204.389 178.274 204.55C178.586 204.706 178.953 204.784 179.375 204.784C179.886 204.784 180.39 204.668 180.887 204.436C181.389 204.199 181.844 203.866 182.251 203.435C182.663 202.999 182.992 202.483 183.238 201.886C183.484 201.29 183.607 200.629 183.607 199.905H186.115C186.115 200.795 186.017 201.598 185.823 202.312C185.629 203.023 185.359 203.643 185.014 204.173C184.668 204.699 184.273 205.13 183.828 205.466C183.686 205.556 183.548 205.641 183.416 205.722C183.283 205.802 183.146 205.887 183.004 205.977C182.464 206.413 181.86 206.728 181.193 206.922C180.53 207.116 179.874 207.213 179.225 207.213ZM192.927 207V192.455H202.729V194.99H196.003V198.456H202.224V200.991H196.003V204.464H202.757V207H192.927ZM208.227 207.206C207.531 207.206 206.911 207.085 206.367 206.844C205.822 206.598 205.391 206.235 205.074 205.757C204.762 205.274 204.605 204.673 204.605 203.953C204.605 203.347 204.717 202.838 204.939 202.426C205.162 202.014 205.465 201.683 205.848 201.432C206.232 201.181 206.667 200.991 207.155 200.864C207.647 200.736 208.164 200.646 208.703 200.594C209.338 200.527 209.849 200.466 210.237 200.409C210.626 200.348 210.907 200.258 211.083 200.139C211.258 200.021 211.345 199.846 211.345 199.614V199.571C211.345 199.121 211.203 198.773 210.919 198.527C210.64 198.281 210.242 198.158 209.726 198.158C209.182 198.158 208.748 198.278 208.426 198.52C208.104 198.757 207.891 199.055 207.787 199.415L204.989 199.188C205.131 198.525 205.41 197.952 205.827 197.469C206.244 196.981 206.781 196.607 207.439 196.347C208.102 196.081 208.869 195.949 209.74 195.949C210.346 195.949 210.926 196.02 211.48 196.162C212.039 196.304 212.534 196.524 212.965 196.822C213.4 197.121 213.744 197.504 213.995 197.973C214.245 198.437 214.371 198.993 214.371 199.642V207H211.502V205.487H211.416C211.241 205.828 211.007 206.129 210.713 206.389C210.42 206.645 210.067 206.846 209.655 206.993C209.243 207.135 208.767 207.206 208.227 207.206ZM209.094 205.118C209.539 205.118 209.932 205.03 210.273 204.855C210.614 204.675 210.881 204.434 211.075 204.131C211.27 203.828 211.367 203.484 211.367 203.101V201.943C211.272 202.005 211.142 202.062 210.976 202.114C210.815 202.161 210.633 202.206 210.429 202.249C210.226 202.286 210.022 202.322 209.818 202.355C209.615 202.384 209.43 202.41 209.264 202.433C208.909 202.485 208.599 202.568 208.334 202.682C208.069 202.795 207.863 202.949 207.716 203.143C207.569 203.333 207.496 203.57 207.496 203.854C207.496 204.266 207.645 204.58 207.943 204.798C208.246 205.011 208.63 205.118 209.094 205.118ZM216.718 207V196.091H219.651V197.994H219.765C219.964 197.317 220.298 196.806 220.767 196.46C221.235 196.11 221.775 195.935 222.386 195.935C222.537 195.935 222.701 195.944 222.876 195.963C223.051 195.982 223.205 196.008 223.338 196.041V198.726C223.196 198.683 222.999 198.645 222.748 198.612C222.497 198.579 222.267 198.562 222.059 198.562C221.614 198.562 221.216 198.66 220.866 198.854C220.52 199.043 220.246 199.308 220.042 199.649C219.843 199.99 219.744 200.383 219.744 200.828V207H216.718ZM227.927 200.693V207H224.902V196.091H227.785V198.016H227.913C228.155 197.381 228.56 196.879 229.128 196.51C229.696 196.136 230.385 195.949 231.194 195.949C231.952 195.949 232.613 196.115 233.176 196.446C233.739 196.777 234.177 197.251 234.49 197.866C234.802 198.477 234.959 199.206 234.959 200.054V207H231.933V200.594C231.938 199.926 231.767 199.405 231.422 199.031C231.076 198.652 230.6 198.463 229.994 198.463C229.587 198.463 229.227 198.551 228.915 198.726C228.607 198.901 228.365 199.157 228.19 199.493C228.02 199.824 227.932 200.224 227.927 200.693Z" fill="#0B0C2E"/>
</svg>
