<svg width="24" height="25" viewBox="0 0 24 25" fill="none" xmlns="http://www.w3.org/2000/svg">
<path d="M16.5977 12.9629C16.5898 11.6309 17.1934 10.627 18.4121 9.88672C17.7305 8.91016 16.6992 8.37305 15.3398 8.26953C14.0527 8.16797 12.6445 9.01953 12.1289 9.01953C11.584 9.01953 10.3379 8.30469 9.35742 8.30469C7.33398 8.33594 5.18359 9.91797 5.18359 13.1367C5.18359 14.0879 5.35742 15.0703 5.70508 16.082C6.16992 17.4141 7.8457 20.6777 9.59375 20.625C10.5078 20.6035 11.1543 19.9766 12.3437 19.9766C13.498 19.9766 14.0957 20.625 15.1152 20.625C16.8789 20.5996 18.3945 17.6328 18.8359 16.2969C16.4707 15.1816 16.5977 13.0312 16.5977 12.9629ZM14.5449 7.00586C15.5352 5.83008 15.4453 4.75977 15.416 4.375C14.541 4.42578 13.5293 4.9707 12.9531 5.64062C12.3184 6.35938 11.9453 7.24805 12.0254 8.25C12.9707 8.32227 13.834 7.83594 14.5449 7.00586Z" fill="#0B0C2E"/>
</svg>
