<svg width="20" height="21" viewBox="0 0 20 21" fill="none" xmlns="http://www.w3.org/2000/svg">
<path d="M2.72916 13.2461C2.02088 12.3259 1.66675 11.8658 1.66675 10.4997C1.66675 9.13353 2.02088 8.67345 2.72916 7.75328C4.14339 5.91597 6.51518 3.83301 10.0001 3.83301C13.485 3.83301 15.8568 5.91597 17.271 7.75328C17.9793 8.67345 18.3334 9.13353 18.3334 10.4997C18.3334 11.8658 17.9793 12.3259 17.271 13.2461C15.8568 15.0834 13.485 17.1663 10.0001 17.1663C6.51518 17.1663 4.14339 15.0834 2.72916 13.2461Z" stroke="#999999" stroke-width="1.5"/>
<path d="M12.5 10.5C12.5 11.8807 11.3807 13 10 13C8.61929 13 7.5 11.8807 7.5 10.5C7.5 9.11929 8.61929 8 10 8C11.3807 8 12.5 9.11929 12.5 10.5Z" stroke="#999999" stroke-width="1.5"/>
</svg>
