<svg width="24" height="25" viewBox="0 0 24 25" fill="none" xmlns="http://www.w3.org/2000/svg">
<g clip-path="url(#clip0_124_8112)">
<path d="M22 12.5C22 6.97719 17.5228 2.5 12 2.5C6.47719 2.5 2 6.97719 2 12.5C2 17.4913 5.65687 21.6284 10.4375 22.3785V15.3906H7.89844V12.5H10.4375V10.2969C10.4375 7.79063 11.9305 6.40625 14.2147 6.40625C15.3088 6.40625 16.4531 6.60156 16.4531 6.60156V9.0625H15.1922C13.9499 9.0625 13.5625 9.83336 13.5625 10.6242V12.5H16.3359L15.8926 15.3906H13.5625V22.3785C18.3431 21.6284 22 17.4913 22 12.5Z" fill="#1877F2"/>
<path d="M15.8926 15.3906L16.3359 12.5H13.5625V10.6242C13.5625 9.83328 13.9499 9.0625 15.1922 9.0625H16.4531V6.60156C16.4531 6.60156 15.3088 6.40625 14.2146 6.40625C11.9305 6.40625 10.4375 7.79063 10.4375 10.2969V12.5H7.89844V15.3906H10.4375V22.3785C10.9544 22.4595 11.4768 22.5001 12 22.5C12.5232 22.5001 13.0456 22.4595 13.5625 22.3785V15.3906H15.8926Z" fill="white"/>
</g>
<defs>
<clipPath id="clip0_124_8112">
<rect width="20" height="20" fill="white" transform="translate(2 2.5)"/>
</clipPath>
</defs>
</svg>
